<svg xmlns="http://www.w3.org/2000/svg" xmlns:xlink="http://www.w3.org/1999/xlink" width="32" height="19" viewBox="0 0 32 19">
  <defs>
    <clipPath id="clip-path">
      <rect id="Rectangle_33" data-name="Rectangle 33" width="32" height="19" transform="translate(538.454 174.505)" fill="none"/>
    </clipPath>
  </defs>
  <g id="Group_230011" data-name="Group 230011" transform="translate(12641 -10309)">
    <g id="AUSTRALIA" transform="translate(-13179.454 10134.494)">
      <g id="Group_48" data-name="Group 48">
        <g id="Group_47" data-name="Group 47">
          <g id="Group_46" data-name="Group 46" clip-path="url(#clip-path)">
            <rect id="Rectangle_32" data-name="Rectangle 32" width="32" height="19" transform="translate(538.454 174.505)" fill="#180087"/>
            <path id="Path_94" data-name="Path 94" d="M546.87,186.146l.492,1.544,1.486-.574-.877,1.348,1.365.826-1.583.14.218,1.6-1.1-1.172-1.091,1.172.218-1.6-1.587-.14,1.369-.826-.881-1.348,1.49.574Z" fill="#fff"/>
            <path id="Path_95" data-name="Path 95" d="M563.706,188.921l.236.734.708-.272-.417.643.65.393-.758.066.108.763-.527-.559-.518.559.1-.763-.754-.066.65-.393-.417-.643.708.272Z" fill="#fff"/>
            <path id="Path_96" data-name="Path 96" d="M559.5,182.138l.231.733.708-.274-.417.644.65.393-.754.064.1.765-.521-.559-.523.559.1-.765-.754-.064.65-.393-.417-.644.708.274Z" fill="#fff"/>
            <path id="Path_97" data-name="Path 97" d="M563.706,177.5l.236.734.708-.272-.417.641.65.394-.758.067.108.762-.527-.557-.518.557.1-.762-.754-.067.65-.394-.417-.641.708.272Z" fill="#fff"/>
            <path id="Path_98" data-name="Path 98" d="M567.453,181l.229.734.713-.273-.423.643.654.391-.758.068.108.765-.523-.56-.521.56.1-.765-.756-.068.652-.391-.417-.643.708.273Z" fill="#fff"/>
            <path id="Path_99" data-name="Path 99" d="M565.393,184.432l.184.458.482.036-.369.318.114.48-.411-.262-.41.262.114-.48-.371-.318.484-.036Z" fill="#fff"/>
            <path id="Path_100" data-name="Path 100" d="M545.471,174.505v2.857h-7.017v2.856h7.017v2.856h2.8v-2.856h7.021v-2.856h-7.021v-2.857Z" fill="#fff"/>
            <path id="Path_101" data-name="Path 101" d="M538.454,174.505v.958l14.955,7.612h1.881v-.958l-14.953-7.612Z" fill="#fff"/>
            <path id="Path_102" data-name="Path 102" d="M553.41,174.505l-14.955,7.612v.958h1.883l14.953-7.612v-.958Z" fill="#fff"/>
            <path id="Path_103" data-name="Path 103" d="M546.03,174.505v3.428h-7.575v1.714h7.575v3.428h1.683v-3.428h7.577v-1.714h-7.577v-3.428Z" fill="#ea0020"/>
            <path id="Path_104" data-name="Path 104" d="M538.454,174.505v.639l4.354,2.218h1.259Zm15.581,0-5.611,2.858h1.256l5.61-2.858Z" fill="#ea0020"/>
            <path id="Path_105" data-name="Path 105" d="M544.067,180.219l-5.613,2.856h1.256l5.612-2.856Zm5.613,0,5.614,2.856v-.639l-4.359-2.217Z" fill="#ea0020"/>
          </g>
        </g>
      </g>
    </g>
  </g>
</svg>
