<svg width="36" height="22" viewBox="0 0 36 22" fill="none" xmlns="http://www.w3.org/2000/svg">
<path d="M14.7102 9.94119C15.439 9.57682 15.996 9.16431 16.3741 8.72432C17.0479 7.92682 17.3779 6.87495 17.3779 5.56183C17.3779 4.24872 17.0479 3.19685 16.381 2.28936C15.274 0.804365 13.397 0.0412498 10.7431 0H0.230469V21.4567H10.0349C11.1419 21.4567 12.1594 21.3605 13.1083 21.168C14.0571 20.9755 14.8753 20.6111 15.5628 20.0886C16.1816 19.6349 16.6904 19.0711 17.1029 18.4043C17.7492 17.3936 18.0724 16.2524 18.0724 14.9805C18.0724 13.7087 17.7905 12.698 17.2267 11.8387C16.656 10.9793 15.8241 10.3468 14.7102 9.94119ZM4.5689 3.71935H9.30611C10.3443 3.71935 11.2037 3.82935 11.8775 4.05623C12.6545 4.37935 13.0464 5.03934 13.0464 6.04308C13.0464 7.04683 12.7507 7.56932 12.1594 7.92682C11.5681 8.28432 10.7981 8.4562 9.85615 8.4562H4.5689V3.71935ZM12.0563 17.3524C11.5338 17.6068 10.7981 17.7305 9.84927 17.7305H4.5689V12.0105H9.9249C10.86 12.0105 11.5819 12.1412 12.1044 12.368C13.0257 12.7874 13.4864 13.5505 13.4864 14.6712C13.4864 15.9911 13.012 16.878 12.0563 17.3524Z" fill="white"/>
<path d="M32.0497 0.99707H22.7266V3.66455H32.0497V0.99707Z" fill="white"/>
<path d="M35.2813 11.5361C35.0888 10.2918 34.6626 9.19865 33.9956 8.25678C33.2668 7.18429 32.3455 6.40742 31.2179 5.91242C30.0972 5.41742 28.839 5.16992 27.4364 5.16992C25.0781 5.16992 23.1667 5.90554 21.6885 7.36991C20.2103 8.83427 19.4746 10.9449 19.4746 13.6949C19.4746 16.4449 20.2928 18.748 21.9292 20.0473C23.5655 21.3467 25.4494 21.9998 27.5946 21.9998C29.7397 21.9998 32.208 21.2298 33.645 19.6898C34.5663 18.7205 35.0888 17.758 35.2057 16.823H30.9085C30.661 17.2905 30.3723 17.648 30.0422 17.9161C29.4441 18.3973 28.6671 18.6448 27.7114 18.6448C26.7557 18.6448 26.0338 18.4455 25.3875 18.0467C24.3287 17.4074 23.7718 16.2936 23.703 14.6986H35.4257C35.4464 13.3305 35.3982 12.2718 35.2882 11.5499L35.2813 11.5361ZM23.813 11.9486C23.9643 10.9174 24.3425 10.0993 24.9337 9.49427C25.525 8.88928 26.3707 8.58677 27.4433 8.58677C28.4334 8.58677 29.2653 8.86865 29.9391 9.43927C30.606 10.0168 30.9842 10.8486 31.0598 11.9486H23.813Z" fill="white"/>
</svg>
