<svg xmlns="http://www.w3.org/2000/svg" width="24" height="24" viewBox="0 0 24 24">
  <g id="Group_229095" data-name="Group 229095" transform="translate(-653.984 -8424)">
    <path id="Ellipse_508" data-name="Ellipse 508" d="M12,0A12,12,0,1,1,0,12,12,12,0,0,1,12,0Z" transform="translate(653.984 8424)" fill="#f58220"/>
    <g id="Vector_Smart_Object" data-name="Vector Smart Object" transform="translate(659.984 8430)">
      <g id="Group_56" data-name="Group 56">
        <g id="Group_55" data-name="Group 55">
          <path id="Path_106" data-name="Path 106" d="M11.037,7.877A6.814,6.814,0,0,1,8.9,7.536a.978.978,0,0,0-.951.2L6.6,8.755A7.457,7.457,0,0,1,3.244,5.4l.989-1.314a.97.97,0,0,0,.239-.983A6.823,6.823,0,0,1,4.13.963.964.964,0,0,0,3.167,0H.963A.964.964,0,0,0,0,.963,11.05,11.05,0,0,0,11.037,12,.964.964,0,0,0,12,11.037V8.84A.964.964,0,0,0,11.037,7.877Z" fill="#fff"/>
        </g>
      </g>
    </g>
  </g>
</svg>
