<svg width="23" height="22" viewBox="0 0 23 22" fill="none" xmlns="http://www.w3.org/2000/svg">
<path d="M10.6743 7.76878C9.43513 5.43222 8.1302 3.23223 6.75446 1.03223C3.38593 2.47866 0.907577 5.63958 0.361328 9.42257C3.66411 9.49338 7.0984 8.94211 10.6743 7.77383V7.76878Z" fill="white"/>
<path d="M11.9851 7.28782C14.4584 6.3269 16.8659 5.08781 19.3443 3.57563C17.2807 1.37563 14.4634 0 11.2315 0C7.9995 0 9.03131 0.136552 8.07031 0.48046C9.44605 2.68046 10.751 4.95126 11.9902 7.28782H11.9851Z" fill="white"/>
<path d="M13.9057 11.344C15.8985 10.7927 18.0329 10.4488 20.1623 10.4488C22.2916 10.4488 21.4672 10.4488 22.1551 10.5196C22.0842 8.31961 21.3306 6.25616 20.1623 4.60742C17.6182 6.25616 15.0741 7.56604 12.5957 8.52696C13.0104 9.48788 13.4909 10.3831 13.9006 11.344H13.9057Z" fill="white"/>
<path d="M12.6012 11.7584C12.1864 10.7975 11.706 9.90233 11.2255 8.94141C7.78611 10.1097 4.41758 10.7267 1.18561 10.7267H0.224609V10.9998C0.224609 13.7511 1.25642 16.2242 2.90528 18.1511C5.65675 15.1924 8.95447 13.0632 12.6012 11.7584Z" fill="white"/>
<path d="M20.2346 11.8955C18.3075 11.8955 16.3855 12.1686 14.5293 12.6541C15.6319 15.0615 16.5221 17.6054 17.4173 20.1493C20.098 18.364 21.8885 15.4054 22.2324 12.0371C21.5445 11.9006 20.8567 11.9006 20.2396 11.9006L20.2346 11.8955Z" fill="white"/>
<path d="M13.2172 13.0635C9.71211 14.2318 6.5459 16.2952 3.86523 19.183C5.79228 20.9026 8.40213 22 11.2244 22C14.0467 22 14.6638 21.5853 16.1761 20.8318C15.2808 18.1513 14.3198 15.6074 13.2172 13.0635Z" fill="white"/>
</svg>
