<svg width="37" height="37" viewBox="0 0 37 37" fill="none" xmlns="http://www.w3.org/2000/svg">
<g clip-path="url(#clip0_820_186)">
<path d="M36.431 8.66577L23.804 21.2928C22.3961 22.6972 20.4886 23.4858 18.5 23.4858C16.5114 23.4858 14.6039 22.6972 13.196 21.2928L0.569 8.66577C0.548 8.90277 0.5 9.11727 0.5 9.35277V27.3528C0.502382 29.3412 1.29332 31.2474 2.69933 32.6534C4.10534 34.0595 6.01161 34.8504 8 34.8528H29C30.9884 34.8504 32.8947 34.0595 34.3007 32.6534C35.7067 31.2474 36.4976 29.3412 36.5 27.3528V9.35277C36.5 9.11727 36.452 8.90277 36.431 8.66577Z" fill="#F58220"/>
<path d="M21.6842 19.1718L35.3852 5.46928C34.7215 4.36876 33.7854 3.45784 32.6671 2.82438C31.5489 2.19092 30.2864 1.85629 29.0012 1.85278H8.00119C6.71602 1.85629 5.45344 2.19092 4.33523 2.82438C3.21702 3.45784 2.28091 4.36876 1.61719 5.46928L15.3182 19.1718C16.1635 20.0138 17.3081 20.4865 18.5012 20.4865C19.6943 20.4865 20.8388 20.0138 21.6842 19.1718Z" fill="#F58220"/>
</g>
<defs>
<clipPath id="clip0_820_186">
<rect width="36" height="36" fill="white" transform="translate(0.5 0.352783)"/>
</clipPath>
</defs>
</svg>
