<svg width="48" height="49" viewBox="0 0 48 49" fill="none" xmlns="http://www.w3.org/2000/svg">
<path d="M20.2508 35.6025C20.2508 36.7892 19.8989 37.9493 19.2397 38.936C18.5804 39.9227 17.6433 40.6917 16.5469 41.1458C15.4506 41.5999 14.2442 41.7188 13.0803 41.4873C11.9164 41.2557 10.8473 40.6843 10.0082 39.8452C9.16908 39.0061 8.59763 37.937 8.36612 36.7731C8.13461 35.6092 8.25343 34.4028 8.70756 33.3064C9.16168 32.2101 9.93072 31.273 10.9174 30.6137C11.9041 29.9544 13.0641 29.6025 14.2508 29.6025C15.8421 29.6025 17.3683 30.2347 18.4935 31.3599C19.6187 32.4851 20.2508 34.0112 20.2508 35.6025ZM10.0621 22.4138L12.7508 19.7232L15.4396 22.4138C15.721 22.6953 16.1028 22.8534 16.5008 22.8534C16.8989 22.8534 17.2806 22.6953 17.5621 22.4138C17.8435 22.1323 18.0017 21.7506 18.0017 21.3525C18.0017 20.9545 17.8435 20.5727 17.5621 20.2913L14.8715 17.6025L17.5621 14.9138C17.8435 14.6323 18.0017 14.2506 18.0017 13.8525C18.0017 13.4545 17.8435 13.0727 17.5621 12.7913C17.2806 12.5098 16.8989 12.3517 16.5008 12.3517C16.1028 12.3517 15.721 12.5098 15.4396 12.7913L12.7508 15.4819L10.0621 12.7913C9.78062 12.5098 9.39888 12.3517 9.00083 12.3517C8.60279 12.3517 8.22105 12.5098 7.93958 12.7913C7.65812 13.0728 7.5 13.4545 7.5 13.8525C7.5 14.2506 7.65812 14.6323 7.93958 14.9138L10.6302 17.6025L7.93958 20.2913C7.65812 20.5727 7.5 20.9545 7.5 21.3525C7.5 21.7506 7.65812 22.1323 7.93958 22.4138C8.22105 22.6953 8.60279 22.8534 9.00083 22.8534C9.39888 22.8534 9.78062 22.6953 10.0621 22.4138ZM40.3715 35.6025L43.0621 32.9138C43.3435 32.6323 43.5017 32.2506 43.5017 31.8525C43.5017 31.4545 43.3435 31.0728 43.0621 30.7913C42.7806 30.5098 42.3989 30.3517 42.0008 30.3517C41.6028 30.3517 41.221 30.5098 40.9396 30.7913L38.2508 33.4819L35.5621 30.7913C35.2806 30.5098 34.8989 30.3517 34.5008 30.3517C34.1028 30.3517 33.721 30.5098 33.4396 30.7913C33.1581 31.0728 33 31.4545 33 31.8525C33 32.2506 33.1581 32.6323 33.4396 32.9138L36.1302 35.6025L33.4396 38.2913C33.1581 38.5728 33 38.9545 33 39.3525C33 39.7506 33.1581 40.1323 33.4396 40.4138C33.721 40.6953 34.1028 40.8534 34.5008 40.8534C34.8989 40.8534 35.2806 40.6953 35.5621 40.4138L38.2508 37.7232L40.9396 40.4138C41.0789 40.5532 41.2444 40.6637 41.4265 40.7391C41.6086 40.8146 41.8037 40.8534 42.0008 40.8534C42.1979 40.8534 42.3931 40.8146 42.5752 40.7391C42.7573 40.6637 42.9227 40.5532 43.0621 40.4138C43.2015 40.2744 43.312 40.109 43.3874 39.9269C43.4628 39.7448 43.5017 39.5496 43.5017 39.3525C43.5017 39.1554 43.4628 38.9603 43.3874 38.7782C43.312 38.5961 43.2015 38.4307 43.0621 38.2913L40.3715 35.6025ZM31.0621 9.79129L30.6215 9.35254H34.5008C34.8987 9.35254 35.2802 9.1945 35.5615 8.9132C35.8428 8.63189 36.0008 8.25036 36.0008 7.85254C36.0008 7.45471 35.8428 7.07318 35.5615 6.79188C35.2802 6.51057 34.8987 6.35254 34.5008 6.35254H27.0008C26.603 6.35254 26.2215 6.51057 25.9402 6.79188C25.6589 7.07318 25.5008 7.45471 25.5008 7.85254V15.3525C25.5008 15.7504 25.6589 16.1319 25.9402 16.4132C26.2215 16.6945 26.603 16.8525 27.0008 16.8525C27.3987 16.8525 27.7802 16.6945 28.0615 16.4132C28.3428 16.1319 28.5008 15.7504 28.5008 15.3525V11.4732L28.9396 11.9138C32.3015 15.2757 32.2958 18.5513 31.6977 20.7075C30.8277 23.8519 28.0677 26.6644 25.1352 27.3975C24.7801 27.4865 24.4698 27.7023 24.2628 28.0043C24.0557 28.3062 23.9663 28.6734 24.0112 29.0367C24.0562 29.4001 24.2324 29.7344 24.5068 29.9768C24.7812 30.2191 25.1347 30.3528 25.5008 30.3525C25.6241 30.3524 25.7469 30.3373 25.8665 30.3075C29.8433 29.3138 33.4321 25.695 34.5908 21.5082C35.7346 17.3738 34.4821 13.2132 31.0621 9.79129Z" fill="#F58220"/>
</svg>
