<svg width="48" height="49" viewBox="0 0 48 49" fill="none" xmlns="http://www.w3.org/2000/svg">
<path d="M40.4991 24.7576C40.5066 24.4876 40.5066 24.2176 40.4991 23.9476L43.2966 20.4526C43.4433 20.2691 43.5448 20.0537 43.593 19.8238C43.6412 19.5939 43.6347 19.3558 43.5741 19.1289C43.1147 17.4053 42.4287 15.7502 41.5341 14.207C41.4169 14.0051 41.2541 13.8333 41.0588 13.7054C40.8635 13.5775 40.641 13.4969 40.4091 13.4701L35.9616 12.9751C35.7766 12.7801 35.5891 12.5926 35.3991 12.4126L34.8741 7.95388C34.8471 7.72177 34.7663 7.49919 34.638 7.30387C34.5097 7.10855 34.3376 6.9459 34.1354 6.82888C32.5922 5.93497 30.9371 5.25022 29.2135 4.79262C28.9865 4.73199 28.7485 4.72551 28.5186 4.77371C28.2886 4.82191 28.0732 4.92344 27.8897 5.07012L24.4041 7.85262C24.1341 7.85262 23.8641 7.85262 23.5941 7.85262L20.0991 5.06075C19.9156 4.91407 19.7002 4.81253 19.4703 4.76433C19.2404 4.71613 19.0023 4.72261 18.7754 4.78325C17.0518 5.24268 15.3967 5.92866 13.8535 6.82325C13.6516 6.94049 13.4798 7.10323 13.3519 7.29854C13.224 7.49385 13.1434 7.71632 13.1166 7.94825L12.6216 12.4032C12.4266 12.5895 12.2391 12.777 12.0591 12.9657L7.60036 13.4776C7.36826 13.5046 7.14567 13.5855 6.95035 13.7137C6.75503 13.842 6.59238 14.0141 6.47536 14.2164C5.58163 15.7598 4.8963 17.4148 4.43723 19.1383C4.37685 19.3654 4.37068 19.6035 4.4192 19.8334C4.46773 20.0633 4.5696 20.2787 4.71661 20.462L7.49911 23.9476C7.49911 24.2176 7.49911 24.4876 7.49911 24.7576L4.70723 28.2526C4.56055 28.4361 4.45902 28.6515 4.41082 28.8814C4.36262 29.1114 4.3691 29.3494 4.42973 29.5764C4.88916 31.3 5.57514 32.955 6.46973 34.4983C6.58697 34.7002 6.74972 34.8719 6.94503 34.9998C7.14033 35.1278 7.3628 35.2083 7.59473 35.2351L12.0422 35.7301C12.2285 35.9251 12.416 36.1126 12.6047 36.2926L13.1241 40.7514C13.1511 40.9835 13.232 41.2061 13.3602 41.4014C13.4885 41.5967 13.6606 41.7594 13.8629 41.8764C15.4063 42.7701 17.0613 43.4554 18.7847 43.9145C19.0118 43.9749 19.25 43.9811 19.4799 43.9325C19.7098 43.884 19.9251 43.7821 20.1085 43.6351L23.5941 40.8526C23.8641 40.8601 24.1341 40.8601 24.4041 40.8526L27.8991 43.6501C28.0826 43.7968 28.298 43.8983 28.5279 43.9465C28.7579 43.9947 28.9959 43.9883 29.2229 43.9276C30.9467 43.469 32.6019 42.783 34.1447 41.8876C34.3466 41.7704 34.5184 41.6076 34.6463 41.4123C34.7742 41.217 34.8548 40.9946 34.8816 40.7626L35.3766 36.3151C35.5716 36.1301 35.7591 35.9426 35.9391 35.7526L40.3979 35.2276C40.63 35.2006 40.8525 35.1198 41.0479 34.9915C41.2432 34.8633 41.4058 34.6911 41.5229 34.4889C42.4166 32.9454 43.1019 31.2904 43.561 29.567C43.6214 29.3399 43.6275 29.1018 43.579 28.8718C43.5305 28.6419 43.4286 28.4266 43.2816 28.2433L40.4991 24.7576ZM23.9991 31.8526C22.5158 31.8526 21.0657 31.4128 19.8323 30.5886C18.599 29.7645 17.6377 28.5932 17.07 27.2228C16.5024 25.8523 16.3538 24.3443 16.6432 22.8895C16.9326 21.4346 17.6469 20.0982 18.6958 19.0493C19.7447 18.0004 21.0811 17.2861 22.5359 16.9967C23.9908 16.7073 25.4988 16.8559 26.8692 17.4235C28.2397 17.9912 29.411 18.9525 30.2351 20.1858C31.0592 21.4192 31.4991 22.8693 31.4991 24.3526C31.4991 26.3418 30.7089 28.2494 29.3024 29.6559C27.8959 31.0625 25.9882 31.8526 23.9991 31.8526Z" fill="#F58220"/>
</svg>
