<svg width="48" height="49" viewBox="0 0 48 49" fill="none" xmlns="http://www.w3.org/2000/svg">
<path d="M33.0002 43.8524C33.0002 44.2503 32.8422 44.6318 32.5609 44.9131C32.2796 45.1944 31.8981 45.3524 31.5002 45.3524H16.5002C16.1024 45.3524 15.7209 45.1944 15.4396 44.9131C15.1583 44.6318 15.0002 44.2503 15.0002 43.8524C15.0002 43.4546 15.1583 43.0731 15.4396 42.7918C15.7209 42.5105 16.1024 42.3524 16.5002 42.3524H31.5002C31.8981 42.3524 32.2796 42.5105 32.5609 42.7918C32.8422 43.0731 33.0002 43.4546 33.0002 43.8524ZM40.5002 19.8524C40.5067 22.353 39.9418 24.822 38.8487 27.071C37.7555 29.32 36.163 31.2896 34.1927 32.8293C33.8243 33.1117 33.5254 33.4746 33.3187 33.8902C33.112 34.3059 33.0031 34.7633 33.0002 35.2274V36.3524C33.0002 37.1481 32.6842 37.9112 32.1216 38.4738C31.559 39.0364 30.7959 39.3524 30.0002 39.3524H18.0002C17.2046 39.3524 16.4415 39.0364 15.8789 38.4738C15.3163 37.9112 15.0002 37.1481 15.0002 36.3524V35.2274C14.9999 34.7688 14.8945 34.3164 14.692 33.9049C14.4895 33.4933 14.1953 33.1337 13.8321 32.8537C11.8667 31.323 10.2753 29.3653 9.17833 27.1288C8.08133 24.8922 7.50749 22.4354 7.50025 19.9443C7.4515 11.0081 14.674 3.5662 23.6027 3.35245C25.8028 3.29943 27.9912 3.68705 30.0392 4.49248C32.0871 5.29791 33.9533 6.50489 35.5278 8.04237C37.1023 9.57984 38.3534 11.4168 39.2073 13.445C40.0613 15.4732 40.5009 17.6518 40.5002 19.8524ZM34.4796 18.1012C34.0907 15.9286 33.0454 13.9274 31.4846 12.3669C29.9237 10.8064 27.9223 9.76156 25.7496 9.37307C25.5553 9.34032 25.3565 9.34616 25.1645 9.39025C24.9725 9.43434 24.791 9.51582 24.6305 9.63004C24.47 9.74425 24.3335 9.88897 24.2289 10.0559C24.1243 10.2229 24.0536 10.4088 24.0209 10.6031C23.9881 10.7973 23.994 10.9962 24.038 11.1882C24.0821 11.3802 24.1636 11.5617 24.2778 11.7222C24.392 11.8827 24.5368 12.0192 24.7037 12.1238C24.8707 12.2284 25.0566 12.2991 25.2509 12.3318C28.3577 12.8549 30.994 15.4912 31.5209 18.6037C31.5802 18.953 31.7613 19.2701 32.0321 19.4987C32.3029 19.7273 32.6459 19.8526 33.0002 19.8524C33.085 19.8519 33.1696 19.845 33.2534 19.8318C33.6455 19.7649 33.9949 19.545 34.2248 19.2204C34.4548 18.8959 34.5464 18.4933 34.4796 18.1012Z" fill="#F58220"/>
</svg>
