<svg xmlns="http://www.w3.org/2000/svg" width="36" height="36" viewBox="0 0 36 36">
  <g id="Group_229779" data-name="Group 229779" transform="translate(-4012 -6580)">
    <g id="Group_229262" data-name="Group 229262" transform="translate(4012 6580)">
      <path id="Path_4756" data-name="Path 4756" d="M638.548,792.594c.026-.033.037-.041.043-.051a4.913,4.913,0,0,1,3.174-3.1c.074-.023.143-.225.131-.335-.044-.395-.164-.783-.182-1.177a4.847,4.847,0,0,1,9.567-1.34.7.7,0,0,0,.272.4,6.694,6.694,0,0,1,3.13,4.549c.038.184.075.368.112.551l.144.025c.257-.812.536-1.618.761-2.439.083-.3.157-.458.506-.48.594-.034,1.183-.147,1.772-.228V785.8c-.609-.079-1.2-.189-1.8-.221-.411-.022-.549-.2-.688-.58-.341-.939-.771-1.844-1.189-2.818.439-.576.94-1.231,1.411-1.845l-2.2-2.26c-.589.465-1.191.936-1.786,1.413a.371.371,0,0,1-.453.058c-.85-.376-1.715-.725-2.582-1.06a.372.372,0,0,1-.288-.362c-.067-.669-.162-1.335-.231-2.006-.026-.252-.1-.365-.384-.358-.822.02-1.646.017-2.469,0-.249,0-.347.08-.372.329-.068.669-.165,1.336-.23,2.006a.412.412,0,0,1-.332.4c-.837.313-1.667.647-2.482,1.013a.438.438,0,0,1-.549-.05c-.58-.476-1.176-.935-1.714-1.36-.748.759-1.474,1.495-2.218,2.25l1.47,1.929a10.194,10.194,0,0,0-1.393,3.041c-.026.094-.2.187-.32.206-.676.1-1.356.182-2.029.269v3.161c.233.033.439.065.647.091s.438.058.657.08c.836.08.828.081,1.041.918A8.86,8.86,0,0,0,638.548,792.594Zm4.681,12.026c-.556,0-1.047-.023-1.535,0a3.732,3.732,0,0,0-3.527,3.2,35.7,35.7,0,0,0-.08,3.882c0,.019.029.039.035.046h16.909c0-1.216.005-2.4,0-3.584a2.313,2.313,0,0,0-.105-.588c-.638-2.28-2.535-3.27-5.034-2.92,0,.337.011.684,0,1.03a3.329,3.329,0,0,1-6.655.019C643.217,805.362,643.229,805.014,643.229,804.621ZM654.8,801.53a6.8,6.8,0,0,0,1.817,2.358,2.518,2.518,0,0,0,3.378-.01,9.308,9.308,0,0,0,1.243-1.365,8.753,8.753,0,0,0,.6-.975c.448.127.725.08.948-.326a4.649,4.649,0,0,0,.5-1.343,1.561,1.561,0,0,0-.326-1.474.969.969,0,0,1-.312-.663,4.352,4.352,0,0,0-8.651-.146c-.048.321-.037.653-.377.863a.78.78,0,0,0-.222.458,2.755,2.755,0,0,0,.431,2.308A.737.737,0,0,0,654.8,801.53Zm-16.36.033a.722.722,0,0,0,.895-.377,2.755,2.755,0,0,0,.488-1.8,1.305,1.305,0,0,0-.548-1.165c-.064-.04-.081-.192-.087-.3a4.437,4.437,0,0,0-4.087-4.137,4.381,4.381,0,0,0-4.586,3.724c-.058.365-.039.729-.406.968a.766.766,0,0,0-.2.426,2.808,2.808,0,0,0,.264,2.063c.291.554.556.679,1.039.608a21.018,21.018,0,0,0,1.62,2.035,2.616,2.616,0,0,0,4.042-.045A22.579,22.579,0,0,0,638.44,801.563Zm6.906-9.382a4.022,4.022,0,0,1-3.718,1.963c-.008.087-.018.147-.018.208,0,1.423-.029,2.846.012,4.267a4.947,4.947,0,0,0,9.89-.2c.028-1.2.008-2.4.007-3.594a2.186,2.186,0,0,0-.03-.25,5,5,0,0,1-3.475-.032A5.1,5.1,0,0,1,645.346,792.182Zm-4.894,5.116v-.367c0-1.1,0-2.2,0-3.293,0-.59.257-.81.836-.734.062.008.121.022.182.03a2.774,2.774,0,0,0,2.942-1.466c.1-.183.207-.366.307-.553.143-.268.281-.543.639-.541s.493.27.632.546c.269.531.539,1.062.827,1.584a1.132,1.132,0,0,0,.354.415,4.469,4.469,0,0,0,4.6.29c.536-.214.893.04.9.63.008.636,0,1.273,0,1.909v1.591a3.04,3.04,0,0,0,.887-1.641,11.033,11.033,0,0,0-.007-3.981,5.068,5.068,0,0,0-5.141-4.324c-.8.04-1.6.032-2.4,0a3,3,0,0,0-2.992,2.338c-.062.239-.1.482-.152.714a3.517,3.517,0,0,0-3.2,2.541A4.31,4.31,0,0,0,640.452,797.3Zm24.1,14.468c0-1.128.011-2.224,0-3.319a4.35,4.35,0,0,0-2.881-4.04.581.581,0,0,0-.686.13,3.915,3.915,0,0,1-2.684,1.15,4.107,4.107,0,0,1-2.719-1.171c-.1-.088-.258-.2-.366-.174a5.727,5.727,0,0,0-.825.291c.116.1.171.153.224.205a4.894,4.894,0,0,1,1.553,3.331c.051,1.046.025,2.095.034,3.144,0,.145,0,.29,0,.452Zm-25.818-7.057c-.715-.471-.851-.463-1.417-.007a3.892,3.892,0,0,1-2.6.988,4.045,4.045,0,0,1-2.634-1.186.458.458,0,0,0-.523-.133,4.076,4.076,0,0,0-2.894,3.324,28.755,28.755,0,0,0-.108,3.621c0,.145,0,.29,0,.438h8.352v-.431c0-.911-.009-1.822,0-2.732a5.137,5.137,0,0,1,1.532-3.69A2.044,2.044,0,0,1,638.734,804.709Zm5.629-.569c0,.56-.032,1.073.007,1.58a2.21,2.21,0,0,0,2.007,2.049,2.127,2.127,0,0,0,2.263-1.584,14.325,14.325,0,0,0,.171-2.065A6.06,6.06,0,0,1,644.363,804.14Z" transform="translate(-628.557 -775.766)" fill="#f58220"/>
      <path id="Path_4757" data-name="Path 4757" d="M698.915,792.585a8.882,8.882,0,0,1-1.051-2.539c-.211-.837-.2-.837-1.041-.918-.22-.021-.439-.051-.658-.08s-.413-.058-.646-.09V785.8c.673-.087,1.353-.167,2.029-.269.118-.018.294-.113.32-.206a10.179,10.179,0,0,1,1.393-3.041l-1.47-1.929,2.218-2.251c.538.426,1.133.883,1.714,1.361a.439.439,0,0,0,.549.051c.815-.368,1.645-.7,2.482-1.013a.412.412,0,0,0,.332-.4c.065-.67.162-1.335.23-2.006.026-.249.122-.333.372-.329.823.016,1.647.018,2.469,0,.279-.007.358.1.384.358.068.669.163,1.336.231,2.007a.372.372,0,0,0,.288.36c.867.335,1.731.684,2.582,1.06a.37.37,0,0,0,.453-.058c.6-.479,1.2-.949,1.786-1.413l2.2,2.26c-.47.613-.971,1.269-1.411,1.845.418.974.849,1.878,1.189,2.818.139.381.277.558.688.58.6.031,1.189.142,1.8.221v3.161c-.589.08-1.178.194-1.772.229-.349.021-.424.18-.506.48-.225.821-.5,1.626-.761,2.439-.048-.008-.1-.017-.144-.023-.037-.185-.074-.368-.112-.552a6.7,6.7,0,0,0-3.13-4.55.694.694,0,0,1-.272-.4,4.847,4.847,0,0,0-9.567,1.341c.018.394.138.783.182,1.177.012.109-.057.31-.131.333a4.918,4.918,0,0,0-3.174,3.1A.472.472,0,0,1,698.915,792.585Z" transform="translate(-688.924 -775.756)" fill="#f58220"/>
      <path id="Path_4758" data-name="Path 4758" d="M730.359,1064.025c0,.393-.013.741,0,1.088a3.329,3.329,0,0,0,6.655-.019c.013-.347,0-.692,0-1.031,2.5-.35,4.4.64,5.034,2.92a2.337,2.337,0,0,1,.105.588c.009,1.183.005,2.366.005,3.584H725.253c-.008-.009-.037-.028-.036-.046a36.246,36.246,0,0,1,.08-3.882,3.735,3.735,0,0,1,3.527-3.2C729.312,1064,729.8,1064.025,730.359,1064.025Z" transform="translate(-715.686 -1035.171)" fill="#f58220"/>
      <path id="Path_4759" data-name="Path 4759" d="M881.343,963.643a.738.738,0,0,1-.977-.312,2.761,2.761,0,0,1-.43-2.309.787.787,0,0,1,.221-.458c.34-.21.33-.542.378-.862a4.351,4.351,0,0,1,8.651.146.955.955,0,0,0,.312.661,1.56,1.56,0,0,1,.326,1.474,4.623,4.623,0,0,1-.5,1.343c-.223.406-.5.453-.947.327a8.835,8.835,0,0,1-.6.975,9.169,9.169,0,0,1-1.244,1.364,2.519,2.519,0,0,1-3.378.011A6.814,6.814,0,0,1,881.343,963.643Z" transform="translate(-855.101 -937.879)" fill="#f58220"/>
      <path id="Path_4760" data-name="Path 4760" d="M649.943,963.675a22.846,22.846,0,0,1-1.569,2,2.616,2.616,0,0,1-4.042.043,20.9,20.9,0,0,1-1.621-2.034c-.482.07-.748-.055-1.039-.608a2.814,2.814,0,0,1-.264-2.063.77.77,0,0,1,.2-.427c.365-.24.348-.6.406-.967A4.382,4.382,0,0,1,646.6,955.9a4.442,4.442,0,0,1,4.087,4.139c.007.1.022.257.087.3a1.3,1.3,0,0,1,.548,1.165,2.762,2.762,0,0,1-.488,1.8A.718.718,0,0,1,649.943,963.675Z" transform="translate(-640.061 -937.877)" fill="#f58220"/>
      <path id="Path_4761" data-name="Path 4761" d="M764.739,939.921a5.112,5.112,0,0,0,2.667,2.364,5,5,0,0,0,3.474.032,2.119,2.119,0,0,1,.031.251c0,1.2.021,2.4-.007,3.593a4.947,4.947,0,0,1-9.89.2c-.04-1.42-.011-2.844-.012-4.267,0-.06.009-.121.018-.208A4.023,4.023,0,0,0,764.739,939.921Z" transform="translate(-747.949 -923.504)" fill="#f58220"/>
      <path id="Path_4762" data-name="Path 4762" d="M739.849,901.849a4.317,4.317,0,0,1-.783-4.313,3.516,3.516,0,0,1,3.2-2.541c.048-.232.089-.475.152-.714a3,3,0,0,1,2.992-2.338c.8.031,1.6.038,2.4,0a5.066,5.066,0,0,1,5.142,4.323,11.07,11.07,0,0,1,.007,3.981,3.026,3.026,0,0,1-.886,1.641V900.3c0-.637.006-1.273,0-1.91-.007-.59-.363-.843-.9-.63a4.467,4.467,0,0,1-4.6-.29,1.108,1.108,0,0,1-.354-.415c-.288-.52-.56-1.053-.828-1.584-.138-.276-.276-.543-.632-.545s-.495.274-.638.541c-.1.186-.2.37-.308.554a2.773,2.773,0,0,1-2.942,1.465c-.062-.008-.121-.022-.182-.03-.578-.076-.834.144-.836.734,0,1.1,0,2.2,0,3.293C739.849,901.6,739.849,901.726,739.849,901.849Z" transform="translate(-727.954 -880.318)" fill="#f58220"/>
      <path id="Path_4763" data-name="Path 4763" d="M901,1068.917H892.65c0-.162,0-.308,0-.452-.008-1.049.016-2.1-.033-3.142a4.906,4.906,0,0,0-1.553-3.333c-.053-.052-.109-.1-.224-.2a5.818,5.818,0,0,1,.824-.291c.109-.022.266.085.367.174a4.114,4.114,0,0,0,2.718,1.171,3.911,3.911,0,0,0,2.684-1.151.582.582,0,0,1,.687-.129A4.348,4.348,0,0,1,901,1065.6C901.015,1066.692,901,1067.788,901,1068.917Z" transform="translate(-865.008 -1032.917)" fill="#f58220"/>
      <path id="Path_4764" data-name="Path 4764" d="M638.731,1061.858a1.861,1.861,0,0,0-.287.2,5.131,5.131,0,0,0-1.533,3.689c-.012.91,0,1.82,0,2.732v.432h-8.352c0-.148,0-.295,0-.441a28.235,28.235,0,0,1,.108-3.619,4.076,4.076,0,0,1,2.894-3.324.456.456,0,0,1,.523.133,4.041,4.041,0,0,0,2.633,1.186,3.9,3.9,0,0,0,2.6-.99C637.88,1061.4,638.015,1061.387,638.731,1061.858Z" transform="translate(-628.554 -1032.915)" fill="#f58220"/>
      <path id="Path_4765" data-name="Path 4765" d="M788.924,1059.329a6.069,6.069,0,0,0,4.447-.019,14.2,14.2,0,0,1-.17,2.065,2.129,2.129,0,0,1-2.263,1.584,2.211,2.211,0,0,1-2.007-2.05C788.892,1060.4,788.924,1059.887,788.924,1059.329Z" transform="translate(-773.119 -1030.954)" fill="#f58220"/>
    </g>
  </g>
</svg>
