<svg xmlns="http://www.w3.org/2000/svg" width="36" height="36" viewBox="0 0 36 36">
  <g id="Group_229783" data-name="Group 229783" transform="translate(-4015.815 -7021.861)">
    <g id="Group_229458" data-name="Group 229458" transform="translate(4015.815 7021.861)">
      <g id="Group_229375" data-name="Group 229375" transform="translate(0 0)">
        <g id="Group_229371" data-name="Group 229371">
          <path id="Path_28393" data-name="Path 28393" d="M1257.1,340.462c.561.116,1.123.227,1.683.351a10.669,10.669,0,0,1,3.738,1.637,9.582,9.582,0,0,1,3.04,3.3,7.341,7.341,0,0,1,.993,3.054c.027.416.069.831.075,1.247a1.2,1.2,0,0,1-1.215,1.029,1.244,1.244,0,0,1-1.222-.89c-.127-.766-.2-1.545-.4-2.3a6.172,6.172,0,0,0-1.607-2.651,7.794,7.794,0,0,0-2.565-1.776,7.88,7.88,0,0,0-2.851-.69,5,5,0,0,1-1.271-.2,1.04,1.04,0,0,1-.752-1.011,1.17,1.17,0,0,1,.934-1.039c.03-.009.054-.041.08-.063Q1256.429,340.463,1257.1,340.462Z" transform="translate(-1230.628 -340.46)" fill="#f58220"/>
          <path id="Path_28394" data-name="Path 28394" d="M1119.958,406.63a5.16,5.16,0,0,0-1.038-6.82,7.006,7.006,0,0,0-7.485-.748,9.491,9.491,0,0,1-.406-1.367,16.444,16.444,0,0,1-.233-2.617,10.65,10.65,0,0,1,.991-4.214,12.32,12.32,0,0,1,2.125-3.151.976.976,0,0,1,1.363-.011q2.272,2.024,4.54,4.05c.984.878,1.972,1.751,2.947,2.638.206.188.334.188.536,0,.554-.516,1.126-1.016,1.694-1.518a1.4,1.4,0,0,1,2.091.241,1.054,1.054,0,0,1-.225,1.253c-.592.531-1.178,1.07-1.786,1.586-.23.194-.217.308,0,.5q3.674,3.256,7.329,6.53c.561.5.5.915-.119,1.378a13.182,13.182,0,0,1-2.867,1.617,12.305,12.305,0,0,1-3.56.932,20.854,20.854,0,0,1-2.912.13C1121.965,406.99,1120.991,406.778,1119.958,406.63Z" transform="translate(-1101.797 -383.018)" fill="#f58220"/>
          <path id="Path_28395" data-name="Path 28395" d="M1088.243,602.24c.954,2.156,1.9,4.3,2.864,6.474H1076.2l2.912-6.421C1082.169,604.6,1085.176,604.59,1088.243,602.24Z" transform="translate(-1070.835 -577.658)" fill="#f58220"/>
          <path id="Path_28396" data-name="Path 28396" d="M1037.885,697.905c-3.754,0-7.508-.014-11.262.011a1.533,1.533,0,0,1-1.5-1.305,1.444,1.444,0,0,1,1.452-1.378l.275,0H1049.1a1.59,1.59,0,0,1,1.488.689,1.348,1.348,0,0,1-1.322,1.987Z" transform="translate(-1025.123 -661.916)" fill="#f58220"/>
          <path id="Path_28397" data-name="Path 28397" d="M1112.15,530.28a3.451,3.451,0,0,1,3.66-3.294c2.33.033,3.732,1.5,3.719,3.306a3.715,3.715,0,0,1-7.38-.012Z" transform="translate(-1103.009 -509.47)" fill="#f58220"/>
          <path id="Path_28398" data-name="Path 28398" d="M1261.943,389.177a1.206,1.206,0,0,1-1.036,1.3,1.112,1.112,0,0,1-1.1-.318,1.5,1.5,0,0,1-.4-.926,3.252,3.252,0,0,0-2.955-2.946,4.481,4.481,0,0,1-.939-.13c-.577-.178-1.032-.774-.922-1.158a1.211,1.211,0,0,1,1.427-1.011,9,9,0,0,1,2.255.455,5.4,5.4,0,0,1,3.529,3.779A6.9,6.9,0,0,1,1261.943,389.177Z" transform="translate(-1230.481 -379.892)" fill="#f58220"/>
        </g>
      </g>
    </g>
  </g>
</svg>
