<svg xmlns="http://www.w3.org/2000/svg" width="36" height="36" viewBox="0 0 36 36">
  <g id="Group_229785" data-name="Group 229785" transform="translate(-4453 -6913)">
    <g id="Group_229278" data-name="Group 229278" transform="translate(3958.789 6766.5)">
      <path id="Path_28362" data-name="Path 28362" d="M497.811,246.807a13.677,13.677,0,0,1-1.531-.631,4.008,4.008,0,0,1-1.982-2.762,4.151,4.151,0,0,1,2.192-4.534,4.351,4.351,0,0,1,2.042-.48h27.325a4.272,4.272,0,0,1,4.174,3.123c.06.15.09.3.15.45v1.321c-.06.15-.12.27-.18.42a4.3,4.3,0,0,1-2.282,2.672,6.766,6.766,0,0,1-1.321.42Zm.721-4.234a1.04,1.04,0,0,0,.991,1.081,1.12,1.12,0,0,0,1.111-1.081,1.01,1.01,0,0,0-1.081-1.021A.975.975,0,0,0,498.532,242.573Zm5.225,1.051a1.052,1.052,0,1,0-.03-2.1,1.012,1.012,0,0,0-.991,1.051A1,1,0,0,0,503.757,243.624Zm3.213-1.051a1,1,0,0,0,.991,1.051,1.052,1.052,0,1,0-.03-2.1A.984.984,0,0,0,506.97,242.573Zm4.2,0a1,1,0,0,0,.991,1.051,1.1,1.1,0,0,0,1.111-1.051,1.042,1.042,0,0,0-1.111-1.051A1.009,1.009,0,0,0,511.173,242.573Zm4.2,0a1,1,0,0,0,.991,1.051,1.1,1.1,0,0,0,1.111-1.051,1.042,1.042,0,0,0-1.111-1.051A1.009,1.009,0,0,0,515.377,242.573Zm5.225,1.051a1.053,1.053,0,1,0-.06-2.1,1.031,1.031,0,0,0-.991,1.051A1.083,1.083,0,0,0,520.6,243.624Zm3.213-1.051a1,1,0,0,0,.991,1.081,1.078,1.078,0,0,0,1.111-1.051,1.036,1.036,0,0,0-1.111-1.021A.929.929,0,0,0,523.815,242.573Z" transform="translate(0 -64.307)" fill="#f58220"/>
      <path id="Path_28363" data-name="Path 28363" d="M569.664,164.845c-1.051,1.021-2.132,2.042-3.153,3.033v-2.7a.338.338,0,0,1,.15-.24,2.111,2.111,0,0,0,.9-2.192c-.06-.6,0-1.2-.03-1.8a.554.554,0,0,0-.15-.36l-3.333-3.333a.554.554,0,0,0-.36-.15h-7.207a.632.632,0,0,0-.39.15c-1.081,1.081-2.162,2.132-3.213,3.243a.632.632,0,0,0-.15.39v2.972a.632.632,0,0,0,.15.39,2.117,2.117,0,0,1,.9,2.162,14.055,14.055,0,0,0,0,1.591,1.724,1.724,0,0,0-.21-.12c-.9-.871-1.772-1.771-2.642-2.672a1.436,1.436,0,0,1-.3-.691c-.03-1.441-.03-2.852,0-4.294a1.108,1.108,0,0,1,.3-.721c1.381-1.411,2.793-2.822,4.2-4.2a1.383,1.383,0,0,1,.781-.3,5.461,5.461,0,0,1,.991,0v-6.4h-5.255a1.019,1.019,0,0,1-1.051-1.021,1.056,1.056,0,0,1,1.081-1.081h16.575a1.352,1.352,0,0,1,1.411.841v.57c-.03.03-.09.03-.12.09a1.222,1.222,0,0,1-1.171.631c-1.561-.03-3.123,0-4.714,0h-.33v6.4h.751a1.494,1.494,0,0,1,1.141.45c1.261,1.291,2.552,2.552,3.844,3.843a4.923,4.923,0,0,1,.57.751C569.664,161.663,569.664,163.254,569.664,164.845Z" transform="translate(-39.453 0)" fill="#f58220"/>
      <path id="Path_28364" data-name="Path 28364" d="M576.668,211.4H568.2v-7.446a.993.993,0,0,1,1.051-1.051H575.5a1.089,1.089,0,0,1,1.2,1.141c.03,2.432,0,4.834,0,7.266A.11.11,0,0,1,576.668,211.4Z" transform="translate(-51.772 -39.466)" fill="#f58220"/>
      <path id="Path_28365" data-name="Path 28365" d="M520.508,211.4H512.1v-7.416a1.116,1.116,0,0,1,1.081-1.081h6.186a1.052,1.052,0,0,1,1.171,1.141c.03,2.4,0,4.834,0,7.236C520.538,211.337,520.508,211.367,520.508,211.4Z" transform="translate(-12.517 -39.466)" fill="#f58220"/>
    </g>
  </g>
</svg>
