<svg xmlns="http://www.w3.org/2000/svg" width="36" height="36" viewBox="0 0 36 36">
  <g id="Group_229797" data-name="Group 229797" transform="translate(-12303 -6867)">
    <g id="Group_229796" data-name="Group 229796" transform="translate(38 -4.157)">
      <g id="Group_229795" data-name="Group 229795">
        <g id="Group_229257" data-name="Group 229257" transform="translate(12265 6876.157)">
          <path id="Path_4817" data-name="Path 4817" d="M129.032,268.577c-.94,0-1.839-.018-2.735.009a.707.707,0,0,0-.637.79q0,2.935,0,5.867a.731.731,0,0,0,.808.808q3.688.009,7.377,0a.734.734,0,0,0,.811-.808q.009-2.935,0-5.867a.737.737,0,0,0-.811-.808c-.632-.009-1.263,0-1.9,0h-.667c0,.408.006.758,0,1.108a1.122,1.122,0,1,1-2.244,0C129.026,269.326,129.032,268.974,129.032,268.577Zm0,8.989c-.917,0-1.783-.012-2.647,0a.717.717,0,0,0-.726.781q-.009,2.952,0,5.9a.729.729,0,0,0,.787.793q3.706.009,7.412,0a.733.733,0,0,0,.793-.787c.009-.35,0-.7,0-1.055v-4.777c0-.479-.226-.828-.617-.84-.908-.029-1.815-.009-2.756-.009,0,.379.006.729,0,1.075a1.124,1.124,0,1,1-2.247.006C129.026,278.307,129.032,277.957,129.032,277.566Z" transform="translate(-98.662 -265.56)" fill="#f58220"/>
          <path id="Path_4818" data-name="Path 4818" d="M33.773,272.4a9.385,9.385,0,0,1,.532-1.434,4.026,4.026,0,0,1,3.634-2.13c.972-.021,1.945,0,2.917,0h.423v-7.65c0-.937.411-1.345,1.351-1.345,1.5,0,3,0,4.5,0a4.142,4.142,0,0,1,4.133,2.929q1.67,4.728,3.331,9.462c.094.27.212.4.514.373.37-.029.743-.006,1.16-.006v-13.02a1.121,1.121,0,0,1,1.489-1.166,1.094,1.094,0,0,1,.752.969,3.364,3.364,0,0,1,.006.385v20.317h.435q4.763,0,9.524,0a1.168,1.168,0,0,1,1.178.661,1.109,1.109,0,0,1-.908,1.581c-.153.012-.306.009-.455.009q-6.605,0-13.214-.006a.414.414,0,0,0-.485.347,3.734,3.734,0,0,1-7.171-.053c-.065-.226-.156-.294-.382-.291-.855.012-1.71.009-2.565,0a.3.3,0,0,0-.347.241,3.742,3.742,0,0,1-7.238-.05c-.018-.056-.035-.109-.056-.164a6.229,6.229,0,0,1-.949-.076,2.587,2.587,0,0,1-2.033-1.918c-.024-.076-.053-.15-.079-.226Q33.774,276.267,33.773,272.4Zm18.557.194c-.044-.138-.071-.226-.1-.314q-1.551-4.4-3.108-8.8a1.9,1.9,0,0,0-1.992-1.4c-1.066,0-2.133,0-3.2,0h-.408v.394q0,4.041,0,8.082a1.883,1.883,0,0,0,2.039,2.033c1.019,0,2.039,0,3.058,0C49.839,272.594,51.058,272.594,52.33,272.594Zm-1.36,10.488a1.5,1.5,0,1,0-1.448-1.548A1.513,1.513,0,0,0,50.97,283.081ZM42.01,281.6a1.491,1.491,0,1,0-1.5,1.484A1.495,1.495,0,0,0,42.01,281.6Z" transform="translate(-33.77 -258.34)" fill="#f58220"/>
          <path id="Path_4819" data-name="Path 4819" d="M129.041,268.584c0,.4-.006.749,0,1.1a1.122,1.122,0,1,0,2.244,0c.009-.35,0-.7,0-1.108h.667c.632,0,1.263-.006,1.9,0a.737.737,0,0,1,.811.808q.009,2.935,0,5.867a.732.732,0,0,1-.811.808q-3.688.009-7.377,0a.731.731,0,0,1-.808-.808q-.009-2.935,0-5.867a.705.705,0,0,1,.637-.79C127.2,268.567,128.1,268.584,129.041,268.584Z" transform="translate(-98.671 -265.567)" fill="#f58220"/>
          <path id="Path_4820" data-name="Path 4820" d="M129.025,299.2c0,.391-.006.74,0,1.09a1.124,1.124,0,1,0,2.247-.006c.006-.35,0-.7,0-1.075.94,0,1.848-.021,2.756.009.391.012.617.361.617.84,0,1.592,0,3.184,0,4.777,0,.353.006.7,0,1.055a.732.732,0,0,1-.793.787q-3.706.009-7.412,0a.725.725,0,0,1-.787-.793q-.009-2.952,0-5.9a.714.714,0,0,1,.726-.781C127.242,299.192,128.108,299.2,129.025,299.2Z" transform="translate(-98.655 -287.194)" fill="#f58220"/>
        </g>
      </g>
    </g>
    <rect id="Rectangle_1902" data-name="Rectangle 1902" width="36" height="36" transform="translate(12303 6867)" fill="none"/>
  </g>
</svg>
