<svg xmlns="http://www.w3.org/2000/svg" width="36" height="36" viewBox="0 0 36 36">
  <g id="Group_229793" data-name="Group 229793" transform="translate(-4892 -6913)">
    <g id="Group_229274" data-name="Group 229274" transform="translate(4783.6 6771.2)">
      <path id="Path_28372" data-name="Path 28372" d="M144.34,175.923c-.15.42-.24.841-.421,1.231a5.17,5.17,0,0,1-3.726,3.123,5.193,5.193,0,0,1-5.319-1.952,16.779,16.779,0,0,1-1.382,1.171,4.9,4.9,0,0,1-3.516.871,4.675,4.675,0,0,1-2.735-1.231,6.863,6.863,0,0,1-.661-.661c-.15-.15-.21-.21-.421.03a5.42,5.42,0,0,1-2.885,1.741,5.18,5.18,0,0,1-5.319-1.952,13.291,13.291,0,0,1-1.442,1.2,4.841,4.841,0,0,1-3.486.841,5.223,5.223,0,0,1-4.568-4.384,4.1,4.1,0,0,1-.06-.871V171.9h36C144.34,173.311,144.34,174.632,144.34,175.923Z" transform="translate(0 -21.062)" fill="#f58220"/>
      <path id="Path_28373" data-name="Path 28373" d="M140.822,141.8a1.818,1.818,0,0,1,.9.931c.962,1.982,1.953,3.933,2.945,5.885a1.463,1.463,0,0,1,.09.21H109.6c.481-.961.962-1.922,1.442-2.852.541-1.111,1.112-2.192,1.653-3.3a1.489,1.489,0,0,1,.811-.841C122.582,141.8,131.717,141.8,140.822,141.8Z" transform="translate(-0.839 0)" fill="#f58220"/>
      <path id="Path_28374" data-name="Path 28374" d="M117.69,203.861a7.512,7.512,0,0,0,6.611-.961,6.462,6.462,0,0,0,2.915,1.231,6.71,6.71,0,0,0,3.906-.39c.481-.21.932-.48,1.412-.691a.508.508,0,0,1,.421.03,7.608,7.608,0,0,0,2.674,1.081,6.826,6.826,0,0,0,2.915-.09,7.083,7.083,0,0,0,2.614-1.171,7.473,7.473,0,0,0,6.7.961v15.4a1.246,1.246,0,0,1-1.292,1.291c-2.254-.03-4.508-.03-6.791-.03h-.391v-6.4a6.708,6.708,0,0,0-1.022-3.783,6.305,6.305,0,0,0-4.177-2.942,6.989,6.989,0,0,0-1.773-.21,6.465,6.465,0,0,0-3.786,1.351,6.679,6.679,0,0,0-2.434,3.723,5.522,5.522,0,0,0-.15,1.231c-.03,2.282,0,4.594,0,6.876v.15c-.06,0-.12.03-.18.03h-7.272a1,1,0,0,1-.992-.991V204.1A.4.4,0,0,0,117.69,203.861Z" transform="translate(-6.435 -42.755)" fill="#f58220"/>
      <path id="Path_28375" data-name="Path 28375" d="M152.9,235.413v-6.846a4.128,4.128,0,0,1,.9-2.552,4.392,4.392,0,0,1,2.614-1.681,4.61,4.61,0,0,1,3.786.811A4.713,4.713,0,0,1,161.975,228a3.554,3.554,0,0,1,.06.781v6.636Z" transform="translate(-31.128 -57.674)" fill="#f58220"/>
    </g>
  </g>
</svg>
