<svg xmlns="http://www.w3.org/2000/svg" width="36" height="36" viewBox="0 0 36 36">
  <g id="Group_229780" data-name="Group 229780" transform="translate(-4012 -6691)">
    <g id="Group_229279" data-name="Group 229279" transform="translate(2846.9 -2731.7)">
      <g id="Group_229272" data-name="Group 229272" transform="translate(1165.1 9422.7)">
        <path id="Path_28384" data-name="Path 28384" d="M520.785,397.718V373.254l-.06-.063h-1.113v-1.268h-4.361v-6.687h4.331V364H528.3v1.236h11.94a.741.741,0,0,1,.6.285l6.075,6.4h-5.233v3.613h-2.135v-3.581H528.3v1.236h-1.143l-.06.063v24.465l.06.063h6.045V384.44h3.639a.756.756,0,0,1,.481.222c.992,1.046,1.985,2.092,3.007,3.137a.516.516,0,0,0,.331.19h3.669v-9.254h5.414v19.046H550.8V400h-36v-2.25h5.895C520.755,397.75,520.755,397.75,520.785,397.718Zm4.241-5.007H522.92v5.07h2.105Zm-2.105-14.546v5.007H525v-5.007Zm0,12.264h2.105v-5.007H522.92Zm16.782,1.743h-2.075v3.454H539.7Zm4.391,0v3.454h2.075v-3.454ZM522.92,375.915h2.105v-2.694H522.92Zm5.414-8.43v2.187h3.459l-1.925-2.028a.793.793,0,0,0-.3-.19C529.176,367.454,528.755,367.486,528.334,367.486Zm-10.947,0v2.187h2.226v-2.187Zm24.481,2.218-1.955-2.06c-.06-.063-.271,0-.331.063-.6.6-1.173,1.2-1.744,1.838a.7.7,0,0,0-.09.158Zm-9.143-2.218c.692.729,1.353,1.426,1.955,2.092l1.985-2.092Z" transform="translate(-514.8 -364)" fill="#f58220"/>
        <path id="Path_28385" data-name="Path 28385" d="M534.5,393l.06.063C534.53,393.063,534.53,393.032,534.5,393Z" transform="translate(-528.575 -383.81)" fill="#f58220"/>
        <path id="Path_28386" data-name="Path 28386" d="M555.9,393.063l.06-.063Z" transform="translate(-543.539 -383.81)" fill="#f58220"/>
        <path id="Path_28387" data-name="Path 28387" d="M534.56,470.4l-.06.063Z" transform="translate(-528.575 -436.682)" fill="#f58220"/>
        <path id="Path_28388" data-name="Path 28388" d="M555.86,470.463l-.06-.063C555.83,470.432,555.86,470.432,555.86,470.463Z" transform="translate(-543.469 -436.682)" fill="#f58220"/>
      </g>
    </g>
  </g>
</svg>
