<svg xmlns="http://www.w3.org/2000/svg" width="36" height="36" viewBox="0 0 36 36">
  <g id="Group_229784" data-name="Group 229784" transform="translate(-4453 -7022)">
    <g id="Group_229459" data-name="Group 229459" transform="translate(-3832 -725.427)">
      <g id="Group_229374" data-name="Group 229374" transform="translate(-22.5 -131.711)">
        <g id="Group_229372" data-name="Group 229372" transform="translate(8307.5 7879.138)">
          <path id="Path_28399" data-name="Path 28399" d="M532.507,398.212c-.684.333-1.347.61-1.963.967a11.423,11.423,0,0,0-2.377,2.181c-.738.769-.427.7-1.4.225-1-.486-1.973-1.021-2.957-1.539a4.172,4.172,0,0,0-4.934.8,5.779,5.779,0,0,0-1.532,2.14,3.448,3.448,0,0,0,1.192,3.582c.66.467,1.24,1.047,1.854,1.578.27.234.538.471.811.711-.307.351-.59.671-.868.992a.462.462,0,0,1-.569.119,3.488,3.488,0,0,0-3.92.944,4.352,4.352,0,0,0-1.332,2.1,3.209,3.209,0,0,0,.852,3.01,14.724,14.724,0,0,1-7.013-2.055,15.646,15.646,0,0,1-7.521-9.367,16.128,16.128,0,0,1,11.494-20.393,16.254,16.254,0,0,1,20.182,14.005Zm-28.222-4.6c.181.176.35.351.528.514s.377.337.573.5a8.668,8.668,0,0,0,5.95,2.018,2.433,2.433,0,0,0,2.217-1.812,2.452,2.452,0,0,1,2.377-1.919,5.386,5.386,0,0,1,1.708.424,8.511,8.511,0,0,0,1.614.543,2.539,2.539,0,0,0,2.278-1.008,6.136,6.136,0,0,0,1.662-4.438.543.543,0,0,0-.228-.383,13.026,13.026,0,0,0-7.379-1.7,14.467,14.467,0,0,0-3.036.488,13.436,13.436,0,0,0-8.263,6.772Zm2.588,8.52c-.262.036-.524.069-.786.108-.9.133-1.791.293-2.693.392-.361.039-.37.229-.3.455a23.4,23.4,0,0,0,.777,2.249,13.755,13.755,0,0,0,4.9,5.863c.7.486.7.479,1.141-.264a1.366,1.366,0,0,0,.144-.276c.3-.968.6-1.938.9-2.909a4.5,4.5,0,0,0,.172-2.062A4.252,4.252,0,0,0,506.873,402.131Z" transform="translate(-500.133 -383.674)" fill="#f58220"/>
          <path id="Path_28400" data-name="Path 28400" d="M662.333,553.876c.219.638.436,1.232.625,1.836a.836.836,0,0,1-.235.994c-.237.19-.45.411-.683.606a.54.54,0,0,1-.786-.069c-.616-.689-1.165-1.44-1.792-2.118-.532-.577-1.125-1.1-1.711-1.625-.507-.453-1.048-.865-1.56-1.313a.7.7,0,0,1-.048-.863c.469-.712,1-1.02,1.544-.859a15.431,15.431,0,0,1,1.459.507.468.468,0,0,0,.607-.127c1.161-1.265,2.329-2.524,3.517-3.809-.457-.4-.888-.8-1.331-1.172-.573-.489-1.16-.961-1.733-1.45-.427-.364-.836-.75-1.265-1.11-.462-.389-.534-.619-.163-1.08a4.918,4.918,0,0,1,1.037-.971,1.237,1.237,0,0,1,1.306.005q2.384,1.233,4.768,2.467c.164.085.3.182.481-.013.685-.755,1.414-1.473,2.07-2.253a5.223,5.223,0,0,1,1.651-1.335,4.278,4.278,0,0,1,2.764-.445,1.213,1.213,0,0,1,.92,1.019,4.573,4.573,0,0,1-.979,3.438,8.451,8.451,0,0,1-.866.909c-.676.642-1.365,1.272-2.051,1.9-.106.1-.228.179-.331.259.573,1.122,1.136,2.234,1.707,3.342.313.609.64,1.212.957,1.819a1.349,1.349,0,0,1-.287,1.585c-.2.217-.417.422-.629.631a.713.713,0,0,1-1.14-.069c-.64-.754-1.3-1.492-1.941-2.244-.515-.6-1.02-1.211-1.525-1.82-.184-.223-.318-.3-.583-.048-1.015.981-2.058,1.932-3.1,2.889C662.789,553.5,662.55,553.691,662.333,553.876Z" transform="translate(-637.807 -521.451)" fill="#f58220"/>
        </g>
      </g>
    </g>
  </g>
</svg>
