<svg xmlns="http://www.w3.org/2000/svg" width="36" height="36" viewBox="0 0 36 36">
  <g id="Group_229792" data-name="Group 229792" transform="translate(-4892 -6802)">
    <g id="Group_229266" data-name="Group 229266" transform="translate(4892 6802)">
      <path id="Path_4770" data-name="Path 4770" d="M48.306,112.211v.434c0,2.624.006,5.252-.006,7.876a1.411,1.411,0,0,0,.447,1.105,10.553,10.553,0,0,0,3.868,2.29,20.5,20.5,0,0,0,6.121,1.118A24.323,24.323,0,0,0,67.651,124a10.835,10.835,0,0,0,4.231-2.432,1.31,1.31,0,0,0,.406-1.009c-.012-2.624-.006-5.252-.006-7.876v-.392c-.156.058-.274.1-.395.148q-5.458,2.144-10.911,4.295a1.719,1.719,0,0,1-1.363.045c-3.524-1.439-7.051-2.859-10.578-4.285C48.806,112.4,48.577,112.317,48.306,112.211ZM76.813,110.5v11.882c1-1,1.342-1.005,2.564-.035V109.49C78.5,109.837,77.652,110.168,76.813,110.5ZM79.4,132.034c-.895,1.15-1.749,1.076-2.614.022,0,1.153-.018,2.2.006,3.251a1.3,1.3,0,1,0,2.6-.022c.018-.755.006-1.51.006-2.265Zm-3.2-4.825c.648.713,1.3,1.426,1.931,2.123.618-.675,1.266-1.378,1.893-2.062-.651-.707-1.31-1.423-1.943-2.114C77.449,125.844,76.8,126.55,76.2,127.209Z" transform="translate(-44.022 -100.653)" fill="#f58220"/>
      <path id="Path_4771" data-name="Path 4771" d="M33.773,88.494a3.122,3.122,0,0,1,.4-.228q7.9-3.127,15.8-6.235a.877.877,0,0,1,.6,0q7.9,3.1,15.8,6.238c.121.048.212.2.315.3-.109.1-.2.241-.327.292q-8.046,3.175-16.1,6.328a.788.788,0,0,1-.536-.006Q41.9,92.041,34.091,88.877c-.109-.045-.215-.1-.321-.148C33.773,88.649,33.773,88.572,33.773,88.494Z" transform="translate(-33.77 -81.98)" fill="#f58220"/>
      <path id="Path_4772" data-name="Path 4772" d="M48.3,117.96c.271.1.5.186.727.279q5.29,2.139,10.578,4.285a1.733,1.733,0,0,0,1.363-.045q5.454-2.159,10.911-4.295l.395-.148v.392c0,2.624-.006,5.252.006,7.876a1.281,1.281,0,0,1-.406,1.009,10.8,10.8,0,0,1-4.231,2.432,24.323,24.323,0,0,1-8.915,1.038,20.483,20.483,0,0,1-6.121-1.118,10.553,10.553,0,0,1-3.869-2.29,1.411,1.411,0,0,1-.447-1.105c.015-2.624.006-5.252.006-7.876C48.3,118.268,48.3,118.143,48.3,117.96Z" transform="translate(-44.015 -106.402)" fill="#f58220"/>
      <path id="Path_4773" data-name="Path 4773" d="M145.15,110.5c.839-.328,1.684-.662,2.564-1.005v12.852c-1.222-.97-1.566-.967-2.564.035Z" transform="translate(-112.359 -100.653)" fill="#f58220"/>
      <path id="Path_4774" data-name="Path 4774" d="M147.659,179.67v.989c0,.755.012,1.51-.006,2.265a1.3,1.3,0,1,1-2.6.022c-.024-1.047-.006-2.1-.006-3.251C145.91,180.746,146.764,180.82,147.659,179.67Z" transform="translate(-112.28 -148.289)" fill="#f58220"/>
      <path id="Path_4775" data-name="Path 4775" d="M143.06,160.319c.6-.662,1.251-1.365,1.878-2.049.636.691,1.3,1.407,1.943,2.114-.627.684-1.275,1.388-1.893,2.062C144.355,161.746,143.708,161.033,143.06,160.319Z" transform="translate(-110.884 -133.764)" fill="#f58220"/>
    </g>
  </g>
</svg>
