<svg xmlns="http://www.w3.org/2000/svg" width="36" height="36" viewBox="0 0 36 36">
  <g id="Group_229789" data-name="Group 229789" transform="translate(-4453 -6580)">
    <g id="Group_229362" data-name="Group 229362" transform="translate(4453 6580)">
      <path id="Path_4828" data-name="Path 4828" d="M241.393,122.228v-1.737h8.891c.9-7.1,1.787-14.169,2.687-21.3-1.646.6-3.239,1.177-4.873,1.768a4.421,4.421,0,0,0-.924-2.718c.273-.106.5-.2.735-.284q9.122-3.328,18.247-6.645c.312-.113.447-.227.393-.659-.093-.741-.111-1.492-.156-2.24-.03-.471.147-.712.549-.751l5.617-.5c.516-.046.675.131.717.762.222,3.253.453,6.507.663,9.76a1.645,1.645,0,0,1-.162.755c-.789,1.712-1.6,3.409-2.39,5.118a1.267,1.267,0,0,0-.135.51q-.013,4.96-.006,9.923c0,.071.012.138.024.262.465,0,.93,0,1.391,0,.57,0,.747.216.747.893,0,.989,0,1.978,0,2.97,0,.585-.2.826-.7.829q-1.993.005-3.982,0c-.474,0-.687-.248-.69-.8q-.009-1.547,0-3.094c0-.535.189-.769.651-.8.5-.035,1-.053,1.505-.06.219,0,.315-.074.315-.365-.009-3.292,0-6.588-.015-9.881a1.175,1.175,0,0,0-.228-.588c-.978-1.467-1.97-2.917-2.942-4.388a1.618,1.618,0,0,1-.243-.716c-.114-1.347-.2-2.7-.3-4.108-1.916.695-3.808,1.382-5.731,2.08.933,8.08,1.862,16.147,2.795,24.245h7.56v1.751l.417.025c.231.014.357.156.357.425a.376.376,0,0,1-.36.429,2.6,2.6,0,0,1-.288,0H241.282c-.264,0-.531,0-.543-.425s.258-.443.525-.443C241.291,122.257,241.315,122.246,241.393,122.228Zm19.144-4.051c-.381-3.314-.756-6.556-1.131-9.824a1.3,1.3,0,0,0-.144.081q-2.42,2.041-4.84,4.083c-.279.237-.264.425.039.677q2.906,2.4,5.818,4.8C260.342,118.047,260.414,118.089,260.537,118.178ZM255.2,114.9c-.348-.287-.7-.571-1.092-.89-.258,2.194-.51,4.32-.768,6.478h7.416a1.562,1.562,0,0,0-.582-1.506m-4.6-16.338c-.051.043-.1.085-.156.124-.336,2.871-.669,5.738-1.014,8.7.156-.124.243-.188.327-.259q2.146-1.807,4.291-3.618c.351-.3.357-.344.051-.7-1.041-1.209-2.087-2.413-3.122-3.629A4.287,4.287,0,0,1,255.58,102.644Zm3.377,3.08.135-.117c-.324-2.747-.648-5.5-.975-8.275-.693.245-1.355.471-2.009.727a.494.494,0,0,0-.192.347q-.184,1.467-.336,2.934a.58.58,0,0,0,.09.369Q257.308,103.729,258.957,105.724Zm11.062-16.118a1.564,1.564,0,0,0-1.424,1.7,1.453,1.453,0,1,0,1.424-1.7Z" transform="translate(-238.607 -87.161)" fill="#f58220"/>
      <path id="Path_4829" data-name="Path 4829" d="M246.488,135.72a2.986,2.986,0,0,0,2.789.046V148.39c1.319.23,1.685.911,1.394,2.534h-5.566a10.837,10.837,0,0,1,.018-1.623,1.032,1.032,0,0,1,.933-.9c.129-.021.261-.021.429-.035C246.488,144.158,246.488,139.969,246.488,135.72Z" transform="translate(-241.648 -118.51)" fill="#f58220"/>
      <path id="Path_4830" data-name="Path 4830" d="M251.116,120.639a2.532,2.532,0,1,1-2.5-2.959A2.746,2.746,0,0,1,251.116,120.639Z" transform="translate(-242.374 -106.864)" fill="#f58220"/>
      <path id="Path_4831" data-name="Path 4831" d="M348.962,187.136c-.168,0-.333,0-.5,0a.344.344,0,0,1-.345-.422c.027-.163.189-.393.315-.411a3.036,3.036,0,0,1,1.029,0c.126.021.288.255.315.418a.341.341,0,0,1-.351.415C349.271,187.14,349.118,187.136,348.962,187.136Z" transform="translate(-313.78 -151.14)" fill="#f58220"/>
      <path id="Path_4832" data-name="Path 4832" d="M234.3,186.188c.108,0,.24-.046.318.011.126.092.306.255.3.379a.606.606,0,0,1-.279.439,1.553,1.553,0,0,1-.6.028.381.381,0,0,1-.4-.425c-.006-.319.165-.447.42-.436.084,0,.168,0,.252,0Z" transform="translate(-233.629 -151.081)" fill="#f58220"/>
    </g>
  </g>
</svg>
