<svg xmlns="http://www.w3.org/2000/svg" width="36" height="36" viewBox="0 0 36 36">
  <g id="Group_229781" data-name="Group 229781" transform="translate(-4012 -6802)">
    <g id="Group_229275" data-name="Group 229275" transform="translate(3710.5 6665.7)">
      <path id="Path_28376" data-name="Path 28376" d="M301.5,240.53c.12,0,.24-.03.36-.03H312.3c.3,0,.42.06.51.36a10.472,10.472,0,0,0,.66,1.591,1.021,1.021,0,0,0,1.08.6c3.24-.03,6.48,0,9.72,0a1.1,1.1,0,0,0,1.26-.871,14.675,14.675,0,0,1,.6-1.441.493.493,0,0,1,.36-.24h10.98c0,.12.03.21.03.3v3.363a1.11,1.11,0,0,1-.51,1.051H301.98l-.42-.42C301.5,243.382,301.5,241.971,301.5,240.53Z" transform="translate(0 -72.914)" fill="#f58220"/>
      <path id="Path_28377" data-name="Path 28377" d="M341.06,193.849c-.21,0-.39.03-.6.03-2.64,0-5.28.03-7.92,0-1.5,0-1.35.33-1.8,1.231-.18.39-.3.781-.45,1.171a.345.345,0,0,1-.27.18h-8.49c-.24-.631-.51-1.291-.75-1.922a1.135,1.135,0,0,0-1.14-.661h-8.49a1.707,1.707,0,0,1-.39-.03c-.03-.03-.03-.06-.06-.06V177.666c0-.6.27-.9.9-.871h28.68c.51,0,.87.12.87.841v16.184C341.09,193.789,341.06,193.819,341.06,193.849Zm-22.53-7.867c1.23-.6,2.37-1.171,3.51-1.771.09-.06.21-.15.21-.21.03-.6,0-1.2,0-1.832-.15.06-.21.09-.3.12-.54.27-1.05.54-1.59.811-1.41.721-2.82,1.441-4.2,2.162a.522.522,0,0,0-.18.33c.06.36-.18.751.15,1.081a.029.029,0,0,1,.03.03c.45.24.87.45,1.32.691,1.47.781,2.97,1.531,4.44,2.312a2.428,2.428,0,0,0,.33.09v-1.771c0-.09-.12-.18-.18-.24-.39-.21-.81-.42-1.2-.631C320.12,186.794,319.37,186.4,318.53,185.983Zm14.7,0c-1.02.51-1.98,1.021-2.97,1.471-.6.27-.87.6-.75,1.261a3.661,3.661,0,0,1,0,.811c0,.09.03.15.03.27.18-.09.3-.18.45-.24,1.62-.811,3.21-1.651,4.83-2.462.87-.45.9-.42.9-1.411v-.06c.06-.21-.06-.3-.24-.39-.51-.24-1.02-.51-1.53-.781-1.47-.751-2.94-1.5-4.44-2.282a7.626,7.626,0,0,1,0,1.171,1.015,1.015,0,0,0,.75,1.2C331.25,184.962,332.21,185.472,333.23,185.983Zm-9.9,3.933h1.74a.281.281,0,0,0,.21-.15c.3-.751.6-1.5.87-2.222.6-1.531,1.17-3.063,1.77-4.594.27-.721.54-1.441.84-2.192h-1.65a.31.31,0,0,0-.33.21c-.33.931-.69,1.832-1.05,2.762C324.95,185.8,324.17,187.844,323.33,189.916Z" transform="translate(-6.44 -28.335)" fill="#f58220"/>
      <path id="Path_28378" data-name="Path 28378" d="M346.21,139.783c-.27.42-.54.871-.81,1.291a1.14,1.14,0,0,0-.06,1.231,9.673,9.673,0,0,1,.63,1.531,1.027,1.027,0,0,0,.75.691l1.44.36a.417.417,0,0,1,.21.24c.03.39,0,.781,0,1.2h-4.92a4.749,4.749,0,0,0-2.04-4.414,4.374,4.374,0,0,0-3.36-.751,4.656,4.656,0,0,0-3.87,5.164H329.2v-1.441c.51-.12,1.02-.24,1.56-.36a1.193,1.193,0,0,0,.87-.691c.24-.54.48-1.111.72-1.651a1.027,1.027,0,0,0-.09-1.051c-.24-.39-.45-.781-.72-1.171-.12-.18-.09-.27.06-.42a9.949,9.949,0,0,0,.78-.811.428.428,0,0,1,.66-.09c.36.24.75.48,1.14.691a1.052,1.052,0,0,0,.99.03,14.592,14.592,0,0,1,1.59-.631,1.208,1.208,0,0,0,.78-.991c.09-.39.18-.811.3-1.2a.382.382,0,0,1,.27-.21c.45-.03.9,0,1.32-.03.24,0,.33.06.36.3.09.45.24.871.33,1.321a1.074,1.074,0,0,0,.78.811,14.647,14.647,0,0,1,1.44.6,1.066,1.066,0,0,0,1.08-.03,8.862,8.862,0,0,0,1.14-.691c.24-.15.39-.15.57.06C345.52,139.092,345.88,139.423,346.21,139.783Z" transform="translate(-19.39)" fill="#f58220"/>
      <path id="Path_28379" data-name="Path 28379" d="M357.717,162.226h-5.04a2.535,2.535,0,0,1,1.23-2.852,2.606,2.606,0,0,1,3.03.3A2.549,2.549,0,0,1,357.717,162.226Z" transform="translate(-35.787 -15.898)" fill="#f58220"/>
      <path id="Path_28380" data-name="Path 28380" d="M310.6,233.4c.03.03.03.06.06.06A.065.065,0,0,0,310.6,233.4Z" transform="translate(-6.37 -67.946)" fill="#f58220"/>
      <path id="Path_28381" data-name="Path 28381" d="M411.9,233.46c.03-.03.03-.06.06-.06A.065.065,0,0,0,411.9,233.46Z" transform="translate(-77.28 -67.946)" fill="#f58220"/>
    </g>
  </g>
</svg>
