<?xml version="1.0" encoding="UTF-8"?>
<svg id="Capa_1" data-name="Capa 1" xmlns="http://www.w3.org/2000/svg" version="1.1" viewBox="0 0 48 48">
  <defs>
    <style>
      .cls-1 {
        fill: #f58220;
        stroke-width: 0px;
      }
    </style>
  </defs>
  <path class="cls-1" d="M.8,47.5l27.5-9.2H3.8l-3.1,9.2Z"/>
  <path class="cls-1" d="M26.1,23.7H8.7l-1.4,4.1h22.9l-4.1-4.1Z"/>
  <path class="cls-1" d="M6.4,30.6l-1.7,5h31.8l1.1-.4-4.6-4.6H6.4h0Z"/>
  <path class="cls-1" d="M13,10.6l-3.4,10.3h13.8l-10.3-10.3Z"/>
  <ellipse class="cls-1" cx="42" cy="4.6" rx="4.1" ry="4.1"/>
  <path class="cls-1" d="M37,10.6h2.8v2.8h-2.8v-2.8Z"/>
  <path class="cls-1" d="M32.4,5h2.8v2.8h-2.8v-2.8Z"/>
  <path class="cls-1" d="M31.9,14.7h2.8v2.8h-2.8v-2.8Z"/>
  <path class="cls-1" d="M20.6,14.2c1.7,1.6,4.1,1.7,6.6.4-.5,1.4-1.7,2.8-2.7,3.5l2,2c.2-.2.4-.4.7-.6,3.4-3.4,3.2-6.4,2.8-7.9,0,0,0,0,0,0,1.3-3.3,0-7.3-2.5-9.9l-1.2-1.2-1.9,1.9,1.2,1.2c1.2,1.2,2.1,2.9,2.2,4.6-2.3-1.8-5.4-2-7.3,0-1.6,1.6-1.6,4.1-.1,5.7l.3.3ZM22.3,10.2c.4-.4,1-.5,1.4-.5,1.1,0,2.4.7,3.1,1.8,0,0-.2.2-.2.3-1.3.8-3.1,1.6-4.3.4-.5-.5-.5-1.4,0-1.9Z"/>
  <path class="cls-1" d="M41.1,19.5c.8-.7,2-1.3,3.4-1.3h2.8s0-2.8,0-2.8h-2.8c-2.7,0-5.1,1.4-6.7,3.6-1.7.2-3.8,1-6.2,3.3-.5.5-1,1.1-1.3,1.6l2,2c.9-1.4,2.4-2.7,3.7-3.5-.5,1.5-.6,3-.3,4.3.6,3.2,2.8,4.5,4.7,4.5,2.7,0,5.2-2.6,4.7-6.5-.3-2.3-1.8-4.4-4-5.3h0ZM40.6,28.5c-1.1.2-2-.7-2.3-2.3-.3-1.3,0-3,.9-4.4,1.7.3,2.9,1.7,3.1,3.4.3,2.1-.7,3.2-1.7,3.3Z"/>
</svg>