<svg xmlns="http://www.w3.org/2000/svg" width="36" height="36" viewBox="0 0 36 36">
  <g id="Group_229787" data-name="Group 229787" transform="translate(-4453 -6802)">
    <g id="Group_229786" data-name="Group 229786">
      <g id="Group_229256" data-name="Group 229256" transform="translate(4453 6802)">
        <path id="Path_4804" data-name="Path 4804" d="M470.254,352.02a7.244,7.244,0,0,1-1.262-.579,2.748,2.748,0,0,1-.905-3.352,2.819,2.819,0,1,1,3.375,3.816c-.121.035-.242.076-.363.118C470.82,352.02,470.537,352.02,470.254,352.02Z" transform="translate(-456.909 -316.023)" fill="#f58220"/>
        <path id="Path_4805" data-name="Path 4805" d="M518.134,352.02a7.243,7.243,0,0,1-1.262-.579,2.749,2.749,0,0,1-.905-3.352,2.819,2.819,0,1,1,3.375,3.816c-.121.035-.242.076-.363.118C518.7,352.02,518.417,352.02,518.134,352.02Z" transform="translate(-490.674 -316.023)" fill="#f58220"/>
        <path id="Path_4806" data-name="Path 4806" d="M441.068,272.535c-.427.629-.843,1.246-1.276,1.883a3.784,3.784,0,0,1-2.7-3.631c0-2.156,1.377-3.51,4.015-3.922q-.367-2.018-.737-4.036-1.216-6.667-2.435-13.334c-.136-.737-.286-1.472-.4-2.212a.455.455,0,0,0-.374-.423q-2.755-.864-5.5-1.757a1.737,1.737,0,0,1-.634-.35.993.993,0,0,1-.147-1.231,1.047,1.047,0,0,1,1.217-.476c1.179.358,2.352.737,3.526,1.11.973.308,1.94.64,2.918.931a1.246,1.246,0,0,1,.949,1.087c.286,1.636.6,3.27.881,4.906.053.314.183.355.457.355q8.043-.009,16.09-.006h8.537c.958,0,1.383.5,1.215,1.428q-1.375,7.548-2.756,15.093A1.1,1.1,0,0,1,462.626,269H441.068a1.758,1.758,0,0,0-.245,3.508A1.9,1.9,0,0,0,441.068,272.535ZM443.152,257c.038.355.091.843.144,1.331.2,1.8.386,3.607.593,5.408a1.076,1.076,0,0,0,1.176,1.043,1.059,1.059,0,0,0,.92-1.266c-.086-.908-.192-1.815-.289-2.723-.15-1.384-.292-2.77-.46-4.151a1.05,1.05,0,0,0-1.185-.984C443.476,255.723,443.1,256.225,443.152,257Zm18.926-.023c.047-.758-.324-1.248-.89-1.322a1.067,1.067,0,0,0-1.194.937c-.018.1-.027.209-.038.314l-.327,2.967-.4,3.7a1.021,1.021,0,0,0,.519,1.069,1.034,1.034,0,0,0,1.551-.717c.085-.458.118-.928.168-1.392C461.677,260.64,461.886,258.743,462.078,256.98Zm-7.844,3.208h.009c-.044,1.134-.094,2.268-.133,3.4a1.08,1.08,0,0,0,1.017,1.2,1.068,1.068,0,0,0,1.1-1.116c.035-.855.068-1.707.1-2.562.053-1.428.112-2.852.156-4.28a1.064,1.064,0,0,0-1.035-1.175,1.05,1.05,0,0,0-1.079,1.1Q454.3,258.464,454.233,260.188Zm-3.246.032H451q-.066-1.718-.136-3.437a1.056,1.056,0,0,0-1.085-1.125,1.069,1.069,0,0,0-1.032,1.181c.012.5.038,1,.059,1.51q.1,2.7.2,5.4a1.009,1.009,0,0,0,.684.969,1.056,1.056,0,0,0,1.427-1.093C451.085,262.488,451.032,261.354,450.988,260.22Z" transform="translate(-430.73 -243)" fill="#f58220"/>
        <path id="Path_4807" data-name="Path 4807" d="M488.9,343.58h7.405a5.4,5.4,0,0,0-1.327,1.971c-.024.062-.165.112-.251.112q-2.149.009-4.3,0a.341.341,0,0,1-.254-.112c-.195-.344-.342-.72-.554-1.052S489.154,343.9,488.9,343.58Z" transform="translate(-471.752 -314.034)" fill="#f58220"/>
        <path id="Path_4808" data-name="Path 4808" d="M536.55,343.511c1.321,0,2.544-.012,3.767.006a1.046,1.046,0,0,1,.026,2.092c-.74.023-1.483.012-2.223,0a.3.3,0,0,1-.233-.138A5.517,5.517,0,0,0,536.55,343.511Z" transform="translate(-505.355 -313.982)" fill="#f58220"/>
      </g>
    </g>
  </g>
</svg>
