<svg xmlns="http://www.w3.org/2000/svg" width="36" height="36" viewBox="0 0 36 36">
  <g id="Group_229782" data-name="Group 229782" transform="translate(-4012 -6913)">
    <g id="Group_4533" data-name="Group 4533" transform="translate(4012 6913)">
      <path id="Path_4809" data-name="Path 4809" d="M268.735,262l-14.827-13.088a21.689,21.689,0,0,1-5.7,10.52c2.9,2.565,5.778,5.106,8.657,7.653A26.962,26.962,0,0,1,268.735,262Zm-13.8,6.581-8.434-7.444c-.04.032-.116.091-.193.159q-2.786,2.459-5.575,4.921a2.914,2.914,0,0,0,.007,4.659c1.028.914,2.063,1.824,3.1,2.732a3.911,3.911,0,0,0,5.422,0q2.721-2.4,5.432-4.794C254.787,268.724,254.873,268.639,254.937,268.58Zm1.95-25.28a2.421,2.421,0,0,0-2.336,1.393,1.977,1.977,0,0,0,.716,2.359q7.778,6.852,15.55,13.716a4.755,4.755,0,0,0,.409.335,2.51,2.51,0,0,0,3.751-1.016,1.951,1.951,0,0,0-.706-2.239q-4.947-4.358-9.885-8.722-2.9-2.56-5.8-5.121A2.618,2.618,0,0,0,256.887,243.3Zm11.506,4.836a1.106,1.106,0,0,0,.689,1.093,1.217,1.217,0,0,0,1.325-.179q1.233-1.049,2.423-2.136a.947.947,0,0,0,0-1.484,1.3,1.3,0,0,0-1.714.026c-.785.682-1.574,1.363-2.33,2.068A2.436,2.436,0,0,0,268.393,248.136Zm-4.766-3.023c0,.35-.007.7,0,1.052a1.2,1.2,0,0,0,2.376.073c.03-.746.033-1.5,0-2.242a1.2,1.2,0,0,0-2.376.068C263.62,244.411,263.627,244.761,263.627,245.113Zm9.529,8.446c.409,0,.822.009,1.231,0a1.058,1.058,0,1,0,0-2.1c-.8-.012-1.588-.012-2.383,0a1.061,1.061,0,1,0,0,2.1C272.387,253.568,272.769,253.559,273.155,253.559Z" transform="translate(-239.575 -243.015)" fill="#f58220"/>
      <path id="Path_4810" data-name="Path 4810" d="M285.107,337.4a3.932,3.932,0,0,1-1.737-1c-1.637-1.419-3.292-2.823-4.919-4.213,1.125-.99,2.24-1.974,3.378-2.979.762.649,1.561,1.328,2.346,2,.606-.517,1.221-1,1.774-1.534a.909.909,0,0,0-.113-1.4c-.453-.411-.932-.8-1.458-1.246.679-.455,1.3-.875,1.994-1.34a17.324,17.324,0,0,1,1.721,1.769,2.753,2.753,0,0,1-.436,3.7c-.549.52-1.165.987-1.754,1.484.413.37.732.693,1.1.978a2.058,2.058,0,0,1-1.028,3.743.2.2,0,0,0-.067.035C285.639,337.4,285.373,337.4,285.107,337.4Z" transform="translate(-265.511 -301.4)" fill="#f58220"/>
      <path id="Path_4811" data-name="Path 4811" d="M286.045,276.161a27.024,27.024,0,0,0-11.868,5.082c-2.879-2.547-5.755-5.085-8.657-7.653a21.676,21.676,0,0,0,5.7-10.52C276.164,267.436,281.086,271.783,286.045,276.161Z" transform="translate(-256.885 -257.176)" fill="#f58220"/>
      <path id="Path_4812" data-name="Path 4812" d="M254.95,312.127c-.063.059-.15.144-.24.226q-2.716,2.4-5.432,4.794a3.911,3.911,0,0,1-5.422,0c-1.032-.911-2.067-1.818-3.1-2.732a2.914,2.914,0,0,1-.007-4.659q2.781-2.463,5.575-4.921c.073-.065.153-.126.193-.159C249.328,307.165,252.131,309.639,254.95,312.127Z" transform="translate(-239.588 -286.562)" fill="#f58220"/>
      <path id="Path_4813" data-name="Path 4813" d="M286.607,243.98a2.63,2.63,0,0,1,1.7.7q2.9,2.565,5.8,5.121,4.942,4.363,9.885,8.722a1.94,1.94,0,0,1,.706,2.239,2.509,2.509,0,0,1-3.751,1.016,4.233,4.233,0,0,1-.409-.335q-7.773-6.857-15.55-13.716a1.979,1.979,0,0,1-.716-2.359A2.423,2.423,0,0,1,286.607,243.98Z" transform="translate(-269.295 -243.694)" fill="#f58220"/>
      <path id="Path_4814" data-name="Path 4814" d="M326.16,253.187a2.426,2.426,0,0,1,.393-.614c.759-.705,1.544-1.387,2.33-2.068a1.3,1.3,0,0,1,1.714-.026.951.951,0,0,1,0,1.484q-1.188,1.088-2.423,2.136a1.218,1.218,0,0,1-1.325.179A1.092,1.092,0,0,1,326.16,253.187Z" transform="translate(-297.342 -248.066)" fill="#f58220"/>
      <path id="Path_4815" data-name="Path 4815" d="M311.833,245.106c0-.35-.01-.7,0-1.052a1.119,1.119,0,0,1,1.152-1.046,1.133,1.133,0,0,1,1.225.978c.033.746.033,1.5,0,2.242a1.2,1.2,0,0,1-2.376-.073C311.826,245.805,311.833,245.456,311.833,245.106Z" transform="translate(-287.781 -243.008)" fill="#f58220"/>
      <path id="Path_4816" data-name="Path 4816" d="M335.746,273.822c-.383,0-.769.009-1.152,0a1.061,1.061,0,1,1,0-2.1c.8-.012,1.588-.012,2.383,0a1.058,1.058,0,1,1,0,2.1C336.565,273.831,336.156,273.822,335.746,273.822Z" transform="translate(-302.166 -263.278)" fill="#f58220"/>
    </g>
  </g>
</svg>
