<svg xmlns="http://www.w3.org/2000/svg" width="36" height="36" viewBox="0 0 36 36">
  <g id="Group_229791" data-name="Group 229791" transform="translate(-4892 -6691)">
    <g id="Group_229259" data-name="Group 229259" transform="translate(4892 6691)">
      <path id="Path_4821" data-name="Path 4821" d="M628.9,141.038h2.107V130.363H637.4V141.02h2.1V124.039h6.332v16.972h2.116V128.255h6.32v12.762h2.116v-21.2h6.4v21.212H664.9v2.12h-36Z" transform="translate(-628.9 -107.152)" fill="#f58220"/>
      <path id="Path_4822" data-name="Path 4822" d="M643.718,80.452c2.868,2.869,5.659,5.662,8.489,8.5l10.181-10.116h-4.866v-2.1h8.462v8.394h-2.089V80.308L652.247,91.891l-8.436-8.441L631.87,95.328c-.5-.494-.981-.979-1.41-1.405Q637.032,87.246,643.718,80.452Z" transform="translate(-630.002 -76.73)" fill="#f58220"/>
    </g>
  </g>
</svg>
