<svg xmlns="http://www.w3.org/2000/svg" width="36" height="36" viewBox="0 0 36 36">
  <g id="Group_229790" data-name="Group 229790" transform="translate(-4892 -6580)">
    <g id="Group_229276" data-name="Group 229276" transform="translate(4802.3 6212.201)">
      <path id="Path_28382" data-name="Path 28382" d="M89.7,378.188c.09-.5.181-1,.3-1.5a11.937,11.937,0,0,1,1.958-4.362,10.775,10.775,0,0,1,3.886-3.43,9.606,9.606,0,0,1,3.675-1.066,9.366,9.366,0,0,1,4.459.733,10.933,10.933,0,0,1,3.223,2.064c.151.133.3.366.452.4.151,0,.3-.2.452-.333a11.284,11.284,0,0,1,3.766-2.3,14.545,14.545,0,0,1,2.38-.533,9.329,9.329,0,0,1,1.928,0,9.9,9.9,0,0,1,2.892.8,10.154,10.154,0,0,1,2.711,1.8,11.705,11.705,0,0,1,2.772,3.729,13.109,13.109,0,0,1,1.054,3.363,7.809,7.809,0,0,1,.09.833v1.565a10.646,10.646,0,0,1-.783,3.9,17.556,17.556,0,0,1-.783,1.732.379.379,0,0,1-.392.3H115.1c-.934-1.9-1.838-3.763-2.772-5.627-.3-.633-.6-1.232-.9-1.865-.271-.566-.693-.533-1.175-.533-.392.033-.542.3-.693.633-.964,2.231-1.928,4.429-2.862,6.66-.422,1-.844,1.965-1.265,2.964-.03.067-.06.1-.12.233-.271-.5-.542-.932-.813-1.4-.693-1.2-1.386-2.431-2.079-3.63a1.022,1.022,0,0,0-1.838.033c-.392.766-.813,1.5-1.205,2.231-.12.2-.211.3-.422.3h-7.26a.362.362,0,0,1-.362-.233,14.142,14.142,0,0,1-1.476-4.029c-.06-.3-.09-.633-.151-.966Z" fill="#f58220"/>
      <path id="Path_28383" data-name="Path 28383" d="M118.473,408.9c.452.966.874,1.831,1.326,2.73.542,1.132,1.115,2.264,1.687,3.4a.966.966,0,0,0,.934.566H130.1c.03.033.03.067.06.1a1.69,1.69,0,0,0-.271.233l-9.218,10.189c-1.446,1.6-2.892,3.163-4.338,4.728a.956.956,0,0,1-1.536-.033l-3.374-3.729q-5.061-5.544-10.122-11.122c-.09-.1-.211-.166-.3-.266,0-.033.03-.067.03-.1H107.6a1.08,1.08,0,0,0,.994-.633c.271-.466.512-.932.783-1.432l1.265,2.2c.572,1,1.175,2,1.747,3a1.011,1.011,0,0,0,1.868-.1c.693-1.6,1.356-3.23,2.049-4.828.572-1.365,1.175-2.73,1.777-4.1A4.688,4.688,0,0,0,118.473,408.9Z" transform="translate(-7.896 -27.415)" fill="#f58220"/>
    </g>
  </g>
</svg>
