<svg xmlns="http://www.w3.org/2000/svg" xmlns:xlink="http://www.w3.org/1999/xlink" width="31" height="19" viewBox="0 0 31 19">
  <defs>
    <clipPath id="clip-path">
      <rect id="Rectangle_11" data-name="Rectangle 11" width="31" height="19" transform="translate(666.06 433.611)" fill="none"/>
    </clipPath>
  </defs>
  <g id="Group_230008" data-name="Group 230008" transform="translate(13316 -10309)">
    <g id="INDIA" transform="translate(-13982.06 9875.389)">
      <g id="Group_37" data-name="Group 37">
        <g id="Group_36" data-name="Group 36">
          <g id="Group_35" data-name="Group 35" clip-path="url(#clip-path)">
            <rect id="Rectangle_7" data-name="Rectangle 7" width="31" height="19" transform="translate(666.06 433.611)" fill="#fff"/>
            <rect id="Rectangle_8" data-name="Rectangle 8" width="31" height="6.335" transform="translate(666.06 433.611)" fill="#f0953e"/>
            <rect id="Rectangle_9" data-name="Rectangle 9" width="31" height="6.331" transform="translate(666.06 446.281)" fill="#3b8916"/>
            <g id="Group_34" data-name="Group 34">
              <g id="Group_33" data-name="Group 33" clip-path="url(#clip-path)">
                <path id="Path_40" data-name="Path 40" d="M681.559,440.264a2.852,2.852,0,1,0,2.714,2.847,2.783,2.783,0,0,0-2.714-2.847m0,.277-.069,1.433.074.815.069-.815-.069-1.433a1.846,1.846,0,0,1,.21.012l0,.008a.12.12,0,0,0,.112.125.115.115,0,0,0,.11-.107,1.944,1.944,0,0,1,.2.049l-.418,1.365-.134.807.271-.773.289-1.4c.065.023.129.042.195.068a.143.143,0,0,0-.009.042.116.116,0,0,0,.114.118.115.115,0,0,0,.1-.073c.062.031.121.065.183.1l-.742,1.2-.328.751.453-.672.623-1.273c.055.034.114.072.171.11a.125.125,0,0,0-.025.076.115.115,0,0,0,.114.117.1.1,0,0,0,.088-.049q.082.074.152.148l-1.01.959-.5.633.6-.523.914-1.065c.047.052.094.1.138.159a.117.117,0,0,0-.04.09.115.115,0,0,0,.11.118.1.1,0,0,0,.067-.023,1.9,1.9,0,0,1,.11.182l-1.212.652-.638.477.708-.342,1.145-.784c.038.068.069.14.1.2a.13.13,0,0,0-.068.114.115.115,0,0,0,.11.117.079.079,0,0,0,.043-.012c.021.068.042.133.057.2l-1.333.3-.731.284.768-.137,1.3-.436c.017.06.032.137.045.2a.113.113,0,0,0-.1.117.117.117,0,0,0,.114.117H684a2.044,2.044,0,0,1,.007.213l-1.361-.068-.78.072.78.08,1.361-.076a2.027,2.027,0,0,1-.007.215h-.011a.119.119,0,0,0-.018.236c-.013.072-.027.14-.043.208l-.464-.155-.835-.284-.768-.136h0l.731.284,1.333.3a1.322,1.322,0,0,1-.061.2l-.015,0h-.025a.113.113,0,0,0-.114.117.1.1,0,0,0,.01.046h0a.087.087,0,0,0,.031.046h0l.008,0h0l.011.008h0l.007.008c-.029.064-.062.128-.1.189l-1.143-.777h0l-.708-.341h0l.372.273.263.2h0l1.212.652c-.036.064-.072.129-.112.185a.13.13,0,0,0-.065-.018.116.116,0,0,0-.07.2c-.045.052-.091.106-.138.155l-.914-1.062-.6-.523.5.633,1.01.96a1.566,1.566,0,0,1-.147.14.1.1,0,0,0-.07-.026.118.118,0,0,0-.112.117.148.148,0,0,0,.009.053c-.06.038-.121.08-.18.121l-.623-1.274-.453-.674h0l.326.746.742,1.206c-.06.034-.119.068-.181.1a.1.1,0,0,0-.1-.072.118.118,0,0,0-.114.117.194.194,0,0,0,.007.046,1.805,1.805,0,0,1-.195.06l-.289-1.4-.271-.762v0l.134.807.418,1.364a1.219,1.219,0,0,1-.2.046.117.117,0,0,0-.11-.1.112.112,0,0,0-.112.114v.015a1.823,1.823,0,0,1-.206.012l.069-1.43-.073-.818-.07.818.069,1.43a1.864,1.864,0,0,1-.21-.012v-.015a.115.115,0,0,0-.114-.114.116.116,0,0,0-.11.1,1.553,1.553,0,0,1-.195-.046l.418-1.364.129-.8-.27.762-.285,1.4a2.045,2.045,0,0,1-.2-.06.134.134,0,0,0,.009-.046.117.117,0,0,0-.11-.117.119.119,0,0,0-.106.072c-.06-.03-.121-.064-.181-.1l.742-1.206.324-.746-.451.671-.621,1.278c-.059-.042-.119-.08-.175-.121a.1.1,0,0,0,.021-.065.116.116,0,0,0-.11-.121.106.106,0,0,0-.087.046c-.054-.049-.1-.091-.151-.144l1.014-.96.5-.633h0l-.6.523-.915,1.062c-.05-.049-.1-.107-.14-.155a.132.132,0,0,0,.043-.1.112.112,0,0,0-.112-.114.132.132,0,0,0-.067.018,1.91,1.91,0,0,1-.111-.181l1.216-.656.633-.466-.708.341-1.143.777c-.034-.061-.062-.121-.092-.189a.111.111,0,0,0,.072-.107.116.116,0,0,0-.114-.121.1.1,0,0,0-.047.012c-.021-.064-.043-.137-.063-.209l1.335-.3.734-.284-.772.136-1.3.44c-.018-.068-.031-.136-.045-.212a.112.112,0,0,0,.1-.115.116.116,0,0,0-.112-.117h-.013c0-.068-.009-.14-.009-.215l1.362.076.778-.08-.778-.072-1.362.068c0-.068.006-.145.009-.213h.019a.113.113,0,0,0,.112-.117.115.115,0,0,0-.1-.117c.015-.068.027-.145.045-.2l1.3.436.772.137-.734-.284-1.335-.3c.019-.072.042-.14.063-.2a.151.151,0,0,0,.042.008.114.114,0,0,0,.112-.117.112.112,0,0,0-.067-.106c.029-.069.06-.133.094-.2l1.143.784.712.342-.636-.477-1.216-.652c.035-.061.073-.121.113-.186a.086.086,0,0,0,.067.027.117.117,0,0,0,.112-.118.15.15,0,0,0-.042-.094c.042-.053.087-.1.136-.155l.914,1.065.6.523-.5-.633-1.014-.959c.051-.049.1-.1.151-.145a.106.106,0,0,0,.087.046.116.116,0,0,0,.114-.121.144.144,0,0,0-.023-.072c.057-.034.114-.076.173-.11l.621,1.273.451.668-.324-.747-.742-1.2c.06-.038.119-.072.179-.1a.111.111,0,0,0,.216-.038.177.177,0,0,0-.007-.049c.064-.026.132-.045.2-.068l.289,1.4.271.773-.132-.807-.418-1.365a1.8,1.8,0,0,1,.2-.049.114.114,0,0,0,.11.1.117.117,0,0,0,.114-.121v-.012a1.766,1.766,0,0,1,.2-.008" fill="#16007e"/>
                <path id="Path_41" data-name="Path 41" d="M681.563,442.687a.427.427,0,1,1-.407.425.416.416,0,0,1,.407-.425" fill="#fff"/>
                <path id="Path_42" data-name="Path 42" d="M681.563,442.786a.318.318,0,0,1,.312.326.315.315,0,1,1-.312-.326" fill="#16007e"/>
              </g>
            </g>
          </g>
        </g>
      </g>
    </g>
  </g>
</svg>
