<svg width="23" height="22" viewBox="0 0 23 22" fill="none" xmlns="http://www.w3.org/2000/svg">
<path d="M17.5381 22H5.0679C2.48689 22 0.382812 19.9452 0.382812 17.4205V4.57953C0.382812 2.05483 2.47988 0 5.0679 0H17.5381C20.1191 0 22.2232 2.05483 22.2232 4.57953V17.4205C22.2232 19.9452 20.1191 22 17.5381 22ZM5.0679 1.88652C3.5249 1.88652 2.26947 3.09276 2.26947 4.57953V17.4205C2.26947 18.9072 3.5249 20.1135 5.0679 20.1135H17.5381C19.0811 20.1135 20.3365 18.9072 20.3365 17.4205V4.57953C20.3365 3.09276 19.0811 1.88652 17.5381 1.88652H5.0679Z" fill="white"/>
<path d="M11.3028 16.7122C8.15372 16.7122 5.59375 14.1524 5.59375 11.0036C5.59375 7.85469 8.15372 5.29492 11.3028 5.29492C14.4519 5.29492 17.0119 7.85469 17.0119 11.0036C17.0119 14.1524 14.4519 16.7122 11.3028 16.7122ZM11.3028 7.17442C9.19173 7.17442 7.48041 8.89263 7.48041 10.9965C7.48041 13.1005 9.19875 14.8187 11.3028 14.8187C13.4069 14.8187 15.1252 13.1005 15.1252 10.9965C15.1252 8.89263 13.4069 7.17442 11.3028 7.17442Z" fill="white"/>
<path d="M18.7648 5.00729C18.7648 5.74366 18.1686 6.33977 17.4322 6.33977C16.6958 6.33977 16.0996 5.74366 16.0996 5.00729C16.0996 4.27092 16.6958 3.6748 17.4322 3.6748C18.1686 3.6748 18.7648 4.27092 18.7648 5.00729Z" fill="white"/>
</svg>
