<svg width="22" height="22" viewBox="0 0 22 22" fill="none" xmlns="http://www.w3.org/2000/svg">
<path d="M0.00390625 11.2244V21.9923H5.13573V10.361V7.33105H0.00390625V11.2244Z" fill="white"/>
<path d="M2.56982 0C1.15246 0 0.00390625 1.14846 0.00390625 2.56572C0.00390625 3.98297 1.15246 5.13143 2.56982 5.13143C3.98718 5.13143 5.13573 3.98297 5.13573 2.56572C5.13573 1.14846 3.98718 0 2.56982 0Z" fill="white"/>
<path d="M21.8761 11.8353C21.534 9.07411 20.2632 7.33105 16.5243 7.33105C12.7854 7.33105 12.818 8.15371 12.2071 9.31032H12.1419V7.33105H8.05273V21.9923H12.3293V14.7268C12.3293 12.8127 12.6958 10.9556 15.0662 10.9556C17.4366 10.9556 17.5833 13.1467 17.5833 14.8571V22.0004H21.982V13.9449C21.982 13.1955 21.9494 12.4869 21.8679 11.8434L21.8761 11.8353Z" fill="white"/>
</svg>
