<svg xmlns="http://www.w3.org/2000/svg" width="60" height="60" viewBox="0 0 60 60">
  <g id="Node" transform="translate(-7239 -3550)">
    <g id="Group_4967" data-name="Group 4967" transform="translate(6723 1717)">
      <path id="Path_5708" data-name="Path 5708" d="M30,0A30,30,0,1,1,0,30,30,30,0,0,1,30,0Z" transform="translate(516 1833)" fill="#fff"/>
      <g id="Node.js_logo_single_icon" data-name="Node.js_logo single icon" transform="translate(531.896 1847.025)">
        <path id="Path_5709" data-name="Path 5709" d="M14.115,31.975a2.464,2.464,0,0,1-1.232-.33l-3.917-2.31c-.594-.33-.308-.44-.11-.506a6.934,6.934,0,0,0,1.76-.814.329.329,0,0,1,.286.022l3.015,1.782a.378.378,0,0,0,.374,0l11.728-6.755a.379.379,0,0,0,.176-.308V9.2a.388.388,0,0,0-.176-.33L14.291,2.115a.338.338,0,0,0-.352,0L2.232,8.87a.388.388,0,0,0-.176.33V22.733a.351.351,0,0,0,.176.308L5.445,24.89c1.738.88,2.817-.154,2.817-1.188V10.345a.324.324,0,0,1,.33-.33h1.474a.338.338,0,0,1,.33.33V23.7c0,2.332-1.276,3.653-3.477,3.653a5.08,5.08,0,0,1-2.707-.726L1.132,24.846A2.449,2.449,0,0,1-.1,22.711V9.2A2.449,2.449,0,0,1,1.132,7.066L12.883.289a2.578,2.578,0,0,1,2.464,0L27.076,7.066A2.5,2.5,0,0,1,28.308,9.2V22.733a2.449,2.449,0,0,1-1.232,2.134L15.347,31.645a2.934,2.934,0,0,1-1.232.33" transform="translate(0)" fill="#689f63"/>
        <g id="Group_4966" data-name="Group 4966" transform="translate(11.54 9.684)">
          <path id="Path_5710" data-name="Path 5710" d="M59.005,57.061c-5.127,0-6.205-2.354-6.205-4.335a.324.324,0,0,1,.33-.33h1.518a.333.333,0,0,1,.33.286c.22,1.54.9,2.31,4,2.31,2.464,0,3.521-.55,3.521-1.87,0-.748-.308-1.32-4.137-1.694-3.213-.308-5.193-1.012-5.193-3.565,0-2.354,2-3.763,5.347-3.763,3.763,0,5.611,1.3,5.853,4.093a.384.384,0,0,1-.088.264.353.353,0,0,1-.242.11H62.526a.35.35,0,0,1-.33-.264c-.374-1.628-1.254-2.134-3.653-2.134-2.707,0-3.015.946-3.015,1.65,0,.858.374,1.1,4,1.584,3.609.484,5.3,1.144,5.3,3.675-.022,2.531-2.134,4-5.831,3.983" transform="translate(-52.8 -44.1)" fill="#689f63"/>
        </g>
      </g>
    </g>
  </g>
</svg>
