<svg width="18" height="22" viewBox="0 0 18 22" fill="none" xmlns="http://www.w3.org/2000/svg">
<path fill-rule="evenodd" clip-rule="evenodd" d="M7.5574 14.355C7.5385 14.4211 7.52432 14.4684 7.51014 14.5251C6.702 17.6913 6.61221 18.3907 5.78044 19.8603C5.38346 20.5597 4.93921 21.2213 4.44771 21.8545C4.391 21.9254 4.33901 22.0199 4.23032 21.9963C4.10744 21.9679 4.09799 21.8592 4.08854 21.7647C3.95148 20.8007 3.88059 19.8414 3.90895 18.8679C3.95148 17.6015 4.11217 17.1667 5.7379 10.3146C5.76153 10.2106 5.7379 10.1208 5.70009 10.0263C5.31256 8.97251 5.23222 7.90452 5.57249 6.82235C6.30975 4.48318 8.96574 4.3036 9.42416 6.23165C9.71245 7.42251 8.95629 8.98669 8.37499 11.2928C7.89294 13.1972 10.1331 14.5535 12.0518 13.1594C13.8193 11.8788 14.5046 8.80711 14.3723 6.6286C14.1171 2.28577 9.35327 1.3501 6.33338 2.74888C2.86924 4.35086 2.08472 8.64171 3.64902 10.6028C3.84278 10.8533 3.99874 11.0045 3.93258 11.255C3.82861 11.6472 3.74354 12.0442 3.63012 12.4364C3.54978 12.7246 3.30402 12.8333 3.01101 12.7105C2.43444 12.4789 1.9524 12.1103 1.56487 11.6283C0.236867 9.98379 -0.141211 6.73257 1.61213 3.97754C3.55923 0.924791 7.1746 -0.308596 10.4781 0.0647273C14.4242 0.513661 16.9196 3.20726 17.3874 6.26946C17.6001 7.66351 17.4489 11.099 15.4923 13.5233C13.2428 16.3114 9.5943 16.5004 7.91185 14.785C7.78425 14.6527 7.67555 14.5015 7.55268 14.3455L7.5574 14.355Z" fill="white"/>
</svg>
