<svg width="100" height="107" viewBox="0 0 100 107" fill="none" xmlns="http://www.w3.org/2000/svg">
<path fill-rule="evenodd" clip-rule="evenodd" d="M18.6714 33.8665C20.272 33.4796 21.9081 33.2849 23.5493 33.2859C36.546 33.2859 47.0789 45.3231 47.0789 60.1657C47.0789 75.0127 36.546 87.0499 23.5493 87.0499C10.5526 87.0499 0.015625 75.0172 0.015625 60.1657C0.015625 59.7314 0.0239349 59.2926 0.0447097 58.8583H0.015625C0.015625 36.4547 15.9707 18.2261 35.5821 18.2261V27.2495C29.2208 27.2495 23.354 29.7226 18.6714 33.8665ZM71.3314 33.8665C72.9019 33.4853 74.5307 33.2859 76.201 33.2859C89.1977 33.2859 99.7347 45.3231 99.7347 60.1657C99.7347 75.0127 89.1977 87.0499 76.201 87.0499C63.2043 87.0499 52.6714 75.0172 52.6714 60.1657C52.6714 59.7314 52.6797 59.2926 52.7005 58.8583H52.6714C52.6714 36.4547 68.6265 18.2261 88.2379 18.2261V27.2495C81.8725 27.2495 76.014 29.7226 71.3314 33.8665Z" fill="#F58220"/>
</svg>
