<?xml version="1.0" encoding="UTF-8"?>
<svg id="Layer_1" data-name="Layer 1" xmlns="http://www.w3.org/2000/svg" version="1.1" viewBox="0 0 48 48">
  <defs>
    <style>
      .cls-1 {
        fill: #f58220;
        stroke-width: 0px;
      }
    </style>
  </defs>
  <g id="Layer_2" data-name="Layer 2">
    <g id="globe">
      <path class="cls-1" d="M34,30.8c.3-2.2.5-4.5.5-6.8s-.2-4.5-.5-6.8h8.9c1.6,4.4,1.6,9.2,0,13.5h-8.9ZM24,44c-2,0-4-2-5.5-5.5-.7-1.6-1.3-3.4-1.7-5.4h14.3c-.4,2-1,3.8-1.7,5.4-1.5,3.5-3.5,5.5-5.5,5.5ZM16.4,30.8c-.7-4.5-.7-9,0-13.5h15.2c.3,2.2.5,4.5.5,6.8,0,2.3-.2,4.5-.5,6.8h-15.2ZM5.2,30.8c-1.6-4.4-1.6-9.2,0-13.5h8.9c-.6,4.5-.6,9,0,13.5,0,0-8.9,0-8.9,0ZM24,4c2,0,4,2,5.5,5.5.7,1.6,1.3,3.4,1.7,5.4h-14.3c.4-2,1-3.8,1.7-5.4,1.5-3.5,3.5-5.5,5.5-5.5ZM41.8,14.9h-8.2c-.5-2.3-1.1-4.5-1.9-6.3-.7-1.5-1.4-2.8-2.2-3.8,5.4,1.5,9.9,5.2,12.4,10.2ZM18.6,4.7c-.8,1-1.6,2.3-2.2,3.8-.8,1.9-1.5,4-1.9,6.3H6.2c2.5-5,7-8.7,12.4-10.2ZM6.2,33.1h8.2c.5,2.3,1.1,4.5,1.9,6.3.7,1.5,1.4,2.8,2.2,3.8-5.4-1.5-9.9-5.2-12.4-10.2ZM29.4,43.3c.8-1,1.6-2.3,2.2-3.8.8-1.9,1.5-4,1.9-6.3h8.2c-2.5,5-7,8.7-12.4,10.2h0Z"/>
    </g>
  </g>
</svg>