<?xml version="1.0" encoding="UTF-8"?>
<svg id="Layer_1" data-name="Layer 1" xmlns="http://www.w3.org/2000/svg" version="1.1" viewBox="0 0 48 48">
  <defs>
    <style>
      .cls-1 {
        fill: #f58220;
        stroke-width: 0px;
      }
    </style>
  </defs>
  <path class="cls-1" d="M40.8,25.6h-3.7c.4,1,.6,2.1.6,3.3v13.8c0,.5,0,.9-.2,1.4h6c2.2,0,4.1-1.8,4.1-4.1v-7.5c0-3.8-3-6.8-6.8-6.8h0Z"/>
  <path class="cls-1" d="M10.3,28.8c0-1.1.2-2.2.6-3.3h-3.6c-3.8,0-6.8,3-6.8,6.8v7.5c0,2.2,1.8,4.1,4.1,4.1h6c-.1-.4-.2-.9-.2-1.4v-13.8h0Z"/>
  <path class="cls-1" d="M28.2,22.1h-8.3c-3.8,0-6.8,3-6.8,6.8v13.8c0,.8.6,1.4,1.4,1.4h19.2c.8,0,1.4-.6,1.4-1.4v-13.8c0-3.8-3-6.8-6.8-6.8h0Z"/>
  <path class="cls-1" d="M24,4c-4.5,0-8.2,3.7-8.2,8.2s1.7,5.7,4.2,7.1c1.2.7,2.5,1,4,1s2.8-.4,4-1c2.5-1.4,4.2-4.1,4.2-7.1,0-4.5-3.7-8.2-8.2-8.2Z"/>
  <path class="cls-1" d="M9.6,11.6c-3.4,0-6.1,2.8-6.1,6.1s2.8,6.1,6.1,6.1,1.7-.2,2.4-.5c1.3-.5,2.3-1.5,3-2.8.5-.9.7-1.8.7-2.9,0-3.4-2.8-6.1-6.1-6.1h0Z"/>
  <path class="cls-1" d="M38.4,11.6c-3.4,0-6.1,2.8-6.1,6.1s.3,2,.7,2.9c.7,1.2,1.7,2.2,3,2.8.7.3,1.6.5,2.4.5,3.4,0,6.1-2.8,6.1-6.1s-2.8-6.1-6.1-6.1h0Z"/>
</svg>