<?xml version="1.0" encoding="UTF-8"?>
<svg id="Layer_1" data-name="Layer 1" xmlns="http://www.w3.org/2000/svg" version="1.1" viewBox="0 0 48 48">
  <defs>
    <style>
      .cls-1 {
        fill: #f58220;
        stroke-width: 0px;
      }
    </style>
  </defs>
  <g id="gliph">
    <g>
      <path class="cls-1" d="M45.3,4.2c-.2-4.9-7.2-4.9-7.4,0,.2,4.8,7.2,4.8,7.4,0Z"/>
      <path class="cls-1" d="M45.7,7.5c-.3-.2-.8-.2-1.1,0-1.6,1.4-4.3,1.4-5.9,0-.3-.3-.8-.3-1.1,0-1.2.9-1.8,2.3-1.8,3.8v4.3c0,.7.6,1.3,1.3,1.3h9.2c.7,0,1.3-.6,1.3-1.3v-4.3c0-1.5-.7-2.9-1.8-3.8h0Z"/>
      <path class="cls-1" d="M10.1,34.7c-.2-4.8-7.2-4.8-7.4,0,.2,4.8,7.2,4.8,7.4,0Z"/>
      <path class="cls-1" d="M10.1,4.2c-.2-4.9-7.2-4.9-7.4,0,.2,4.8,7.2,4.8,7.4,0Z"/>
      <path class="cls-1" d="M1.8,17h9.2c.7,0,1.3-.6,1.3-1.3v-4.3c0-1.5-.7-2.9-1.8-3.8-.3-.2-.8-.2-1.1,0-1.6,1.4-4.3,1.4-5.9,0-.3-.3-.8-.3-1.1,0-1.2.9-1.8,2.3-1.8,3.8v4.3c0,.7.6,1.3,1.3,1.3h0Z"/>
      <path class="cls-1" d="M10.4,38.1c-.3-.2-.8-.2-1.1,0-1.6,1.4-4.3,1.4-5.9,0-.3-.3-.8-.3-1.1,0-1.2.9-1.8,2.3-1.8,3.8v4.3c0,.7.6,1.3,1.3,1.3h9.2c.7,0,1.3-.6,1.3-1.3v-4.3c0-1.5-.7-2.9-1.8-3.8h0Z"/>
      <path class="cls-1" d="M38,34.7c.2,4.8,7.2,4.8,7.4,0-.2-4.8-7.2-4.8-7.4,0Z"/>
      <path class="cls-1" d="M45.7,38.1c-.3-.2-.8-.2-1.1,0-1.6,1.4-4.3,1.4-5.9,0-.3-.3-.8-.3-1.1,0-1.2.9-1.8,2.3-1.8,3.8v4.3c0,.7.6,1.3,1.3,1.3h9.2c.7,0,1.3-.6,1.3-1.3v-4.3c0-1.5-.7-2.9-1.8-3.8h0Z"/>
      <path class="cls-1" d="M33.6,28.9c.3-.5.5-1.1.7-1.7l1.6-.2c.6,0,1.1-.7,1.1-1.4v-3.4c0-.7-.5-1.3-1.1-1.4l-1.6-.2c-.2-.6-.4-1.1-.7-1.7l1-1.3c.4-.5.3-1.3-.2-1.8l-2.4-2.4c-.5-.5-1.3-.6-1.8-.2l-1.3,1c-.5-.3-1.1-.5-1.7-.7l-.2-1.6c0-.6-.7-1.1-1.4-1.1h-3.4c-.7,0-1.3.5-1.4,1.1l-.2,1.6c-.6.2-1.1.4-1.7.7l-1.3-1c-.5-.4-1.3-.3-1.8.2l-2.4,2.4c-.5.5-.6,1.3-.2,1.8l1,1.3c-.3.5-.5,1.1-.7,1.7l-1.6.2c-.6,0-1.1.7-1.1,1.4v3.4c0,.7.5,1.3,1.1,1.4l1.6.2c.2.6.4,1.1.7,1.7l-1,1.3c-.4.5-.3,1.3.2,1.8l2.4,2.4c.5.5,1.3.6,1.8.2l1.3-1c.5.3,1.1.5,1.7.7l.2,1.6c0,.6.7,1.1,1.4,1.1h3.4c.7,0,1.3-.5,1.4-1.1l.2-1.6c.6-.2,1.1-.4,1.7-.7l1.3,1c.5.4,1.3.3,1.8-.2l2.4-2.4c.5-.5.6-1.3.2-1.8,0,0-1-1.3-1-1.3ZM24,30.9c-3.8,0-6.9-3.1-6.9-6.9.3-9.2,13.5-9.2,13.8,0,0,3.8-3.1,6.9-6.9,6.9h0Z"/>
      <path class="cls-1" d="M24,18.7c-6.9.2-6.9,10.2,0,10.5,2.9,0,5.2-2.4,5.2-5.2s-2.4-5.2-5.2-5.2h0Z"/>
      <path class="cls-1" d="M13.2,7c6.8-4.4,15.2-3.9,22,.1.8,0,1.2-1.1.5-1.6-6.9-4.5-16.5-4.5-23.4,0-.9.6,0,2,.9,1.4h0Z"/>
      <path class="cls-1" d="M32.9,42.1c-5.5,2.7-12.2,2.7-17.7,0-.4-.2-.9,0-1.1.4-.2.4,0,.9.4,1.1,3,1.5,6.2,2.2,9.6,2.2s6.6-.8,9.6-2.2c.4-.2.6-.7.4-1.1s-.7-.6-1.1-.4Z"/>
      <path class="cls-1" d="M3.7,18.7c-.5-.1-.9.2-1,.6-.3,1.5-.5,3.1-.5,4.7s.2,3.6.7,5.3c0,.4.4.7.8.7s1-.5.8-1c-.8-3-.8-6.3-.1-9.3.1-.5-.2-.9-.6-1Z"/>
      <path class="cls-1" d="M44.4,30c.4,0,.7-.3.8-.7.8-3.2.9-6.8.1-10-.1-.5-.6-.7-1-.6s-.7.6-.6,1c.3,1.4.5,2.9.5,4.3,0,1.8-.3,3.5-.6,5.1,0,.5.4.8.8.8Z"/>
    </g>
  </g>
</svg>