<svg xmlns="http://www.w3.org/2000/svg" xmlns:xlink="http://www.w3.org/1999/xlink" width="31" height="18" viewBox="0 0 31 18">
  <defs>
    <clipPath id="clip-path">
      <rect id="Rectangle_26" data-name="Rectangle 26" width="31" height="18" transform="translate(569.737 165.329)" fill="none"/>
    </clipPath>
  </defs>
  <g id="Group_230009" data-name="Group 230009" transform="translate(13091 -10308.999)">
    <g id="USA" transform="translate(-13660.737 10143.67)">
      <g id="Group_40" data-name="Group 40">
        <g id="Group_39" data-name="Group 39">
          <g id="Group_38" data-name="Group 38" clip-path="url(#clip-path)">
            <rect id="Rectangle_12" data-name="Rectangle 12" width="31" height="1.384" transform="translate(569.737 181.945)" fill="#cb001c"/>
            <rect id="Rectangle_13" data-name="Rectangle 13" width="31" height="1.385" transform="translate(569.737 180.56)" fill="#fff"/>
            <rect id="Rectangle_14" data-name="Rectangle 14" width="31" height="1.384" transform="translate(569.737 179.177)" fill="#cb001c"/>
            <rect id="Rectangle_15" data-name="Rectangle 15" width="31" height="1.384" transform="translate(569.737 177.792)" fill="#fff"/>
            <rect id="Rectangle_16" data-name="Rectangle 16" width="31" height="1.385" transform="translate(569.737 176.407)" fill="#cb001c"/>
            <rect id="Rectangle_17" data-name="Rectangle 17" width="31" height="1.384" transform="translate(569.737 175.023)" fill="#fff"/>
            <rect id="Rectangle_18" data-name="Rectangle 18" width="31" height="1.386" transform="translate(569.737 173.637)" fill="#cb001c"/>
            <rect id="Rectangle_19" data-name="Rectangle 19" width="31" height="1.384" transform="translate(569.737 172.254)" fill="#fff"/>
            <rect id="Rectangle_20" data-name="Rectangle 20" width="31" height="1.385" transform="translate(569.737 170.869)" fill="#cb001c"/>
            <rect id="Rectangle_21" data-name="Rectangle 21" width="31" height="1.385" transform="translate(569.737 169.484)" fill="#fff"/>
            <rect id="Rectangle_22" data-name="Rectangle 22" width="31" height="1.385" transform="translate(569.737 168.099)" fill="#cb001c"/>
            <rect id="Rectangle_23" data-name="Rectangle 23" width="31" height="1.384" transform="translate(569.737 166.715)" fill="#fff"/>
            <rect id="Rectangle_24" data-name="Rectangle 24" width="31" height="1.385" transform="translate(569.737 165.329)" fill="#cb001c"/>
            <rect id="Rectangle_25" data-name="Rectangle 25" width="14.157" height="9.694" transform="translate(569.737 165.329)" fill="#2a3560"/>
            <path id="Path_43" data-name="Path 43" d="M571.016,166.4l.121.367h.388l-.314.226.119.366-.314-.226-.314.226.123-.366-.314-.226h.384Z" fill="#fff"/>
            <path id="Path_44" data-name="Path 44" d="M571.016,168.017l.121.365h.388l-.314.225.119.368-.314-.227-.314.227.123-.368-.314-.225h.384Z" fill="#fff"/>
            <path id="Path_45" data-name="Path 45" d="M571.016,169.635l.121.365h.388l-.314.226.119.367-.314-.227-.314.227.123-.367-.314-.226h.384Z" fill="#fff"/>
            <path id="Path_46" data-name="Path 46" d="M571.016,171.252l.121.367h.388l-.314.226.119.365-.314-.225-.314.225.123-.365-.314-.226h.384Z" fill="#fff"/>
            <path id="Path_47" data-name="Path 47" d="M571.016,172.87l.121.368h.388l-.314.224.119.366-.314-.226-.314.226.123-.366-.314-.224h.384Z" fill="#fff"/>
            <path id="Path_48" data-name="Path 48" d="M572.149,167.25l.115.367h.39l-.312.227.117.365-.31-.225-.312.225.117-.365-.312-.227h.388Z" fill="#fff"/>
            <path id="Path_49" data-name="Path 49" d="M572.149,168.869l.115.365h.39l-.312.227.117.365-.31-.224-.312.224.117-.365-.312-.227h.388Z" fill="#fff"/>
            <path id="Path_50" data-name="Path 50" d="M572.149,170.487l.115.366h.39l-.312.226.117.366-.31-.226-.312.226.117-.366-.312-.226h.388Z" fill="#fff"/>
            <path id="Path_51" data-name="Path 51" d="M572.149,172.105l.115.365h.39l-.312.226.117.365-.31-.227-.312.227.117-.365-.312-.226h.388Z" fill="#fff"/>
            <path id="Path_52" data-name="Path 52" d="M573.293,166.4l.121.367h.388l-.314.226.121.366-.316-.226-.31.226.119-.366-.314-.226h.386Z" fill="#fff"/>
            <path id="Path_53" data-name="Path 53" d="M573.293,168.017l.121.365h.388l-.314.225.121.368-.316-.227-.31.227.119-.368-.314-.225h.386Z" fill="#fff"/>
            <path id="Path_54" data-name="Path 54" d="M573.293,169.635l.121.365h.388l-.314.226.121.367-.316-.227-.31.227.119-.367-.314-.226h.386Z" fill="#fff"/>
            <path id="Path_55" data-name="Path 55" d="M573.293,171.252l.121.367h.388l-.314.226.121.365-.316-.225-.31.225.119-.365-.314-.226h.386Z" fill="#fff"/>
            <path id="Path_56" data-name="Path 56" d="M573.293,172.87l.121.368h.388l-.314.224.121.366-.316-.226-.31.226.119-.366-.314-.224h.386Z" fill="#fff"/>
            <path id="Path_57" data-name="Path 57" d="M574.426,167.25l.119.367h.39l-.316.227.121.365-.314-.225-.312.225.121-.365-.316-.227h.388Z" fill="#fff"/>
            <path id="Path_58" data-name="Path 58" d="M574.426,168.869l.119.365h.39l-.316.227.121.365-.314-.224-.312.224.121-.365-.316-.227h.388Z" fill="#fff"/>
            <path id="Path_59" data-name="Path 59" d="M574.426,170.487l.119.366h.39l-.316.226.121.366-.314-.226-.312.226.121-.366-.316-.226h.388Z" fill="#fff"/>
            <path id="Path_60" data-name="Path 60" d="M574.426,172.105l.119.365h.39l-.316.226.121.365-.314-.227-.312.227.121-.365-.316-.226h.388Z" fill="#fff"/>
            <path id="Path_61" data-name="Path 61" d="M575.573,166.4l.121.367h.384l-.314.226.125.366-.316-.226-.314.226.119-.366-.31-.226h.386Z" fill="#fff"/>
            <path id="Path_62" data-name="Path 62" d="M575.573,168.017l.121.365h.384l-.314.225.125.368-.316-.227-.314.227.119-.368-.31-.225h.386Z" fill="#fff"/>
            <path id="Path_63" data-name="Path 63" d="M575.573,169.635l.121.365h.384l-.314.226.125.367-.316-.227-.314.227.119-.367-.31-.226h.386Z" fill="#fff"/>
            <path id="Path_64" data-name="Path 64" d="M575.573,171.252l.121.367h.384l-.314.226.125.365-.316-.225-.314.225.119-.365-.31-.226h.386Z" fill="#fff"/>
            <path id="Path_65" data-name="Path 65" d="M575.573,172.87l.121.368h.384l-.314.224.125.366-.316-.226-.314.226.119-.366-.31-.224h.386Z" fill="#fff"/>
            <path id="Path_66" data-name="Path 66" d="M576.706,167.25l.119.367h.386l-.312.227.117.365-.31-.225-.312.225.117-.365-.312-.227h.386Z" fill="#fff"/>
            <path id="Path_67" data-name="Path 67" d="M576.706,168.869l.119.365h.386l-.312.227.117.365-.31-.224-.312.224.117-.365-.312-.227h.386Z" fill="#fff"/>
            <path id="Path_68" data-name="Path 68" d="M576.706,170.487l.119.366h.386l-.312.226.117.366-.31-.226-.312.226.117-.366-.312-.226h.386Z" fill="#fff"/>
            <path id="Path_69" data-name="Path 69" d="M576.706,172.105l.119.365h.386l-.312.226.117.365-.31-.227-.312.227.117-.365-.312-.226h.386Z" fill="#fff"/>
            <path id="Path_70" data-name="Path 70" d="M577.849,166.4l.121.367h.386l-.312.226.121.366-.316-.226-.31.226.117-.366-.312-.226h.386Z" fill="#fff"/>
            <path id="Path_71" data-name="Path 71" d="M577.849,168.017l.121.365h.386l-.312.225.121.368-.316-.227-.31.227.117-.368-.312-.225h.386Z" fill="#fff"/>
            <path id="Path_72" data-name="Path 72" d="M577.849,169.635l.121.365h.386l-.312.226.121.367-.316-.227-.31.227.117-.367-.312-.226h.386Z" fill="#fff"/>
            <path id="Path_73" data-name="Path 73" d="M577.849,171.252l.121.367h.386l-.312.226.121.365-.316-.225-.31.225.117-.365-.312-.226h.386Z" fill="#fff"/>
            <path id="Path_74" data-name="Path 74" d="M577.849,172.87l.121.368h.386l-.312.224.121.366-.316-.226-.31.226.117-.366-.312-.224h.386Z" fill="#fff"/>
            <path id="Path_75" data-name="Path 75" d="M578.982,167.25l.119.367h.39l-.314.227.119.365-.314-.225-.312.225.121-.365-.314-.227h.388Z" fill="#fff"/>
            <path id="Path_76" data-name="Path 76" d="M578.982,168.869l.119.365h.39l-.314.227.119.365-.314-.224-.312.224.121-.365-.314-.227h.388Z" fill="#fff"/>
            <path id="Path_77" data-name="Path 77" d="M578.982,170.487l.119.366h.39l-.314.226.119.366-.314-.226-.312.226.121-.366-.314-.226h.388Z" fill="#fff"/>
            <path id="Path_78" data-name="Path 78" d="M578.982,172.105l.119.365h.39l-.314.226.119.365-.314-.227-.312.227.121-.365-.314-.226h.388Z" fill="#fff"/>
            <path id="Path_79" data-name="Path 79" d="M580.129,166.4l.121.367h.386l-.312.226.117.366-.312-.226-.31.226.117-.366-.312-.226h.386Z" fill="#fff"/>
            <path id="Path_80" data-name="Path 80" d="M580.129,168.017l.121.365h.386l-.312.225.117.368-.312-.227-.31.227.117-.368-.312-.225h.386Z" fill="#fff"/>
            <path id="Path_81" data-name="Path 81" d="M580.129,169.635l.121.365h.386l-.312.226.117.367-.312-.227-.31.227.117-.367-.312-.226h.386Z" fill="#fff"/>
            <path id="Path_82" data-name="Path 82" d="M580.129,171.252l.121.367h.386l-.312.226.117.365-.312-.225-.31.225.117-.365-.312-.226h.386Z" fill="#fff"/>
            <path id="Path_83" data-name="Path 83" d="M580.129,172.87l.121.368h.386l-.312.224.117.366-.312-.226-.31.226.117-.366-.312-.224h.386Z" fill="#fff"/>
            <path id="Path_84" data-name="Path 84" d="M581.262,167.25l.117.367h.388l-.31.227.115.365-.31-.225-.316.225.121-.365-.31-.227h.384Z" fill="#fff"/>
            <path id="Path_85" data-name="Path 85" d="M581.262,168.869l.117.365h.388l-.31.227.115.365-.31-.224-.316.224.121-.365-.31-.227h.384Z" fill="#fff"/>
            <path id="Path_86" data-name="Path 86" d="M581.262,170.487l.117.366h.388l-.31.226.115.366-.31-.226-.316.226.121-.366-.31-.226h.384Z" fill="#fff"/>
            <path id="Path_87" data-name="Path 87" d="M581.262,172.105l.117.365h.388l-.31.226.115.365-.31-.227-.316.227.121-.365-.31-.226h.384Z" fill="#fff"/>
            <path id="Path_88" data-name="Path 88" d="M582.406,166.4l.123.367h.384l-.312.226.121.366-.316-.226-.31.226.117-.366-.312-.226h.386Z" fill="#fff"/>
            <path id="Path_89" data-name="Path 89" d="M582.406,168.017l.123.365h.384l-.312.225.121.368-.316-.227-.31.227.117-.368-.312-.225h.386Z" fill="#fff"/>
            <path id="Path_90" data-name="Path 90" d="M582.406,169.635l.123.365h.384l-.312.226.121.367-.316-.227-.31.227.117-.367L581.9,170h.386Z" fill="#fff"/>
            <path id="Path_91" data-name="Path 91" d="M582.406,171.252l.123.367h.384l-.312.226.121.365-.316-.225-.31.225.117-.365-.312-.226h.386Z" fill="#fff"/>
            <path id="Path_92" data-name="Path 92" d="M582.406,172.87l.123.368h.384l-.312.224.121.366-.316-.226-.31.226.117-.366-.312-.224h.386Z" fill="#fff"/>
          </g>
        </g>
      </g>
    </g>
  </g>
</svg>
