<svg width="33" height="22" viewBox="0 0 33 22" fill="none" xmlns="http://www.w3.org/2000/svg">
<path fill-rule="evenodd" clip-rule="evenodd" d="M4.21123 21.3703C3.02588 20.9814 2.22948 20.2036 1.8035 19.0276C0.757063 16.157 0.451464 4.15635 2.46099 1.78585C3.14627 0.980245 4.02601 0.498736 5.08171 0.387619C10.4991 -0.195748 27.2236 -0.112409 29.159 0.582075C30.2888 0.989505 31.0852 1.73029 31.5297 2.85998C32.6687 5.82311 32.715 16.62 31.3815 19.472C31.0204 20.2499 30.4277 20.7962 29.6776 21.1851C27.6588 22.25 6.86899 22.2314 4.21123 21.361V21.3703ZM12.8142 15.7496C16.0739 14.0643 19.2966 12.3883 22.5655 10.6938C19.2966 8.9807 16.0647 7.30468 12.8142 5.61014V15.7496Z" fill="white"/>
</svg>
